<?xml version="1.0" encoding="utf-8"?>
<!-- Generator: Adobe Illustrator 18.0.0, SVG Export Plug-In . SVG Version: 6.00 Build 0)  -->
<!DOCTYPE svg PUBLIC "-//W3C//DTD SVG 1.1//EN" "http://www.w3.org/Graphics/SVG/1.1/DTD/svg11.dtd">
<svg version="1.1" id="Layer_1" xmlns="http://www.w3.org/2000/svg" xmlns:xlink="http://www.w3.org/1999/xlink" x="0px" y="0px"
	 viewBox="0 0 332.1 15.8" enable-background="new 0 0 332.1 15.8" xml:space="preserve">
<g>
	<path fill="#FFFFFF" d="M0,3.7h2.8l1.6,5.5h0l1.6-5.5h2.8l-3,8.9H3L0,3.7z"/>
	<path fill="#FFFFFF" d="M9.9,3.7h2.5v1.1h0c0.3-0.4,0.6-0.7,1.1-0.9c0.5-0.3,1-0.4,1.7-0.4c0.6,0,1.2,0.1,1.7,0.3
		c0.5,0.2,1,0.5,1.4,1c0.4,0.4,0.7,0.9,0.9,1.4c0.2,0.6,0.3,1.2,0.3,1.8c0,0.5-0.1,1.1-0.2,1.6c-0.2,0.6-0.4,1.1-0.7,1.5
		c-0.3,0.5-0.8,0.8-1.3,1.1c-0.6,0.3-1.2,0.4-2,0.4c-0.7,0-1.3-0.1-1.7-0.4c-0.4-0.3-0.7-0.5-1-0.8h0l0,4H9.9V3.7z M14.7,10.4
		c0.3,0,0.6-0.1,0.9-0.2c0.3-0.1,0.5-0.3,0.7-0.5c0.2-0.2,0.3-0.4,0.4-0.7s0.2-0.5,0.2-0.8c0-0.3,0-0.6-0.1-0.8
		c-0.1-0.3-0.2-0.5-0.4-0.7s-0.4-0.4-0.7-0.5C15.4,6.1,15.1,6,14.7,6c-0.3,0-0.7,0.1-0.9,0.2s-0.5,0.3-0.7,0.5
		c-0.2,0.2-0.3,0.4-0.4,0.7c-0.1,0.3-0.1,0.5-0.1,0.8c0,0.3,0.1,0.6,0.2,0.8s0.2,0.5,0.4,0.7c0.2,0.2,0.4,0.4,0.7,0.5
		C14.1,10.3,14.4,10.4,14.7,10.4z"/>
	<path fill="#FFFFFF" d="M21,3.7h2.5V5h0c0.2-0.4,0.6-0.7,1.1-1c0.5-0.3,1-0.4,1.7-0.4c0.5,0,0.9,0.1,1.3,0.2l-1,2.6
		c-0.3-0.2-0.6-0.3-1-0.3c-0.3,0-0.5,0-0.8,0.1s-0.5,0.2-0.7,0.4c-0.2,0.2-0.3,0.4-0.4,0.7s-0.2,0.6-0.2,0.9v4.4H21V3.7z"/>
	<path fill="#FFFFFF" d="M32.4,12.9c-0.8,0-1.5-0.1-2.1-0.4c-0.6-0.3-1.1-0.6-1.5-1.1s-0.7-0.9-0.9-1.5c-0.2-0.6-0.3-1.1-0.3-1.6
		c0-0.5,0.1-1.1,0.3-1.6C28.1,6,28.4,5.5,28.8,5c0.4-0.4,0.9-0.8,1.5-1.1c0.6-0.3,1.3-0.4,2.1-0.4c0.8,0,1.5,0.1,2.1,0.4
		C35.1,4.2,35.6,4.6,36,5c0.4,0.4,0.7,0.9,0.9,1.5c0.2,0.6,0.3,1.1,0.3,1.6c0,0.5-0.1,1.1-0.3,1.6c-0.2,0.6-0.5,1.1-0.9,1.5
		c-0.4,0.4-0.9,0.8-1.5,1.1C33.9,12.7,33.2,12.9,32.4,12.9z M32.4,10.3c0.3,0,0.5-0.1,0.8-0.2s0.5-0.3,0.7-0.4
		c0.2-0.2,0.3-0.4,0.4-0.7c0.1-0.3,0.2-0.6,0.2-0.9s-0.1-0.6-0.2-0.9c-0.1-0.3-0.3-0.5-0.4-0.7c-0.2-0.2-0.4-0.3-0.7-0.4
		S32.7,6,32.4,6c-0.3,0-0.5,0.1-0.8,0.2S31.1,6.5,31,6.6c-0.2,0.2-0.3,0.4-0.4,0.7c-0.1,0.3-0.2,0.6-0.2,0.9s0.1,0.6,0.2,0.9
		s0.3,0.5,0.4,0.7c0.2,0.2,0.4,0.3,0.7,0.4S32.1,10.3,32.4,10.3z"/>
	<path fill="#EA571C" d="M42.2,12.8c-2.2,0-3.3-1.2-3.3-3.7V6h-1V3.7h1V1.3h2.7v2.4h3V6h-3v3.2c0,0.5,0.1,0.8,0.3,1s0.5,0.3,0.8,0.3
		c0.3,0,0.5-0.1,0.7-0.2c0.2-0.1,0.4-0.2,0.5-0.4l0.8,2c-0.2,0.2-0.5,0.5-1,0.7C43.3,12.7,42.8,12.8,42.2,12.8z"/>
	<path fill="#EA571C" d="M50,12.9c-0.8,0-1.5-0.1-2.1-0.4s-1.1-0.6-1.5-1.1c-0.4-0.4-0.7-0.9-0.9-1.5c-0.2-0.6-0.3-1.1-0.3-1.6
		c0-0.5,0.1-1.1,0.3-1.6C45.7,6,46,5.5,46.4,5c0.4-0.4,0.8-0.8,1.4-1.1c0.6-0.3,1.3-0.4,2.1-0.4c0.8,0,1.5,0.1,2.1,0.4
		c0.6,0.3,1,0.6,1.4,1.1c0.4,0.4,0.6,0.9,0.8,1.5c0.2,0.6,0.3,1.1,0.3,1.6c0,0.1,0,0.3,0,0.5c0,0.2,0,0.3-0.1,0.4H48
		c0.1,0.2,0.2,0.4,0.3,0.6c0.1,0.2,0.3,0.3,0.5,0.4c0.2,0.1,0.4,0.2,0.6,0.3c0.2,0.1,0.4,0.1,0.7,0.1c0.4,0,0.8-0.1,1.1-0.2
		c0.4-0.1,0.6-0.3,0.8-0.5l1.6,1.6c-0.3,0.4-0.8,0.8-1.5,1.1C51.6,12.7,50.8,12.9,50,12.9z M49.9,5.8c-0.5,0-0.9,0.1-1.2,0.3
		c-0.3,0.2-0.6,0.6-0.7,1.2h3.8c-0.1-0.5-0.3-0.9-0.7-1.2C50.7,5.9,50.3,5.8,49.9,5.8z"/>
	<path fill="#EA571C" d="M59.6,15.8c-0.8,0-1.6-0.1-2.2-0.4c-0.6-0.3-1.1-0.6-1.4-1l1.8-1.6c0.2,0.2,0.4,0.4,0.7,0.5
		s0.7,0.2,1.1,0.2c0.3,0,0.5,0,0.8-0.1c0.3-0.1,0.5-0.1,0.7-0.3c0.2-0.1,0.3-0.3,0.5-0.5c0.1-0.2,0.2-0.5,0.2-0.9v-0.8h0
		c-0.2,0.2-0.5,0.5-0.9,0.7c-0.4,0.2-1,0.3-1.6,0.3c-0.7,0-1.4-0.1-1.9-0.4c-0.5-0.3-0.9-0.6-1.3-1c-0.3-0.4-0.6-0.9-0.7-1.4
		c-0.2-0.5-0.2-1-0.2-1.5c0-0.6,0.1-1.1,0.3-1.6c0.2-0.5,0.5-0.9,0.8-1.3c0.4-0.4,0.8-0.7,1.3-0.9s1.1-0.3,1.7-0.3
		c0.6,0,1.2,0.1,1.6,0.3c0.4,0.2,0.8,0.5,1,0.8h0V3.7h2.5v8.1c0,0.6-0.1,1.1-0.3,1.6c-0.2,0.5-0.5,0.9-0.9,1.3
		c-0.4,0.3-0.9,0.6-1.5,0.8C61.1,15.7,60.4,15.8,59.6,15.8z M59.8,9.6c0.3,0,0.6-0.1,0.8-0.2C60.8,9.4,61,9.2,61.2,9
		s0.3-0.4,0.4-0.6s0.1-0.5,0.1-0.7c0-0.2,0-0.5-0.1-0.7c-0.1-0.2-0.2-0.4-0.4-0.6C61,6.2,60.8,6.1,60.6,6s-0.5-0.2-0.8-0.2
		S59.2,5.9,58.9,6c-0.2,0.1-0.5,0.2-0.6,0.4C58.1,6.6,58,6.8,57.9,7c-0.1,0.2-0.1,0.5-0.1,0.7c0,0.3,0,0.5,0.1,0.7
		C58,8.7,58.2,8.9,58.3,9s0.4,0.3,0.6,0.4C59.2,9.6,59.5,9.6,59.8,9.6z"/>
	<path fill="#EA571C" d="M70.4,12.9c-0.8,0-1.5-0.1-2.1-0.4s-1.1-0.6-1.5-1.1c-0.4-0.4-0.7-0.9-0.9-1.5c-0.2-0.6-0.3-1.1-0.3-1.6
		c0-0.5,0.1-1.1,0.3-1.6C66.2,6,66.4,5.5,66.8,5c0.4-0.4,0.8-0.8,1.4-1.1c0.6-0.3,1.3-0.4,2.1-0.4c0.8,0,1.5,0.1,2.1,0.4
		c0.6,0.3,1,0.6,1.4,1.1c0.4,0.4,0.6,0.9,0.8,1.5c0.2,0.6,0.3,1.1,0.3,1.6c0,0.1,0,0.3,0,0.5c0,0.2,0,0.3-0.1,0.4h-6.2
		c0.1,0.2,0.2,0.4,0.3,0.6c0.1,0.2,0.3,0.3,0.5,0.4c0.2,0.1,0.4,0.2,0.6,0.3c0.2,0.1,0.4,0.1,0.7,0.1c0.4,0,0.8-0.1,1.1-0.2
		c0.4-0.1,0.6-0.3,0.8-0.5l1.6,1.6c-0.3,0.4-0.8,0.8-1.5,1.1C72,12.7,71.3,12.9,70.4,12.9z M70.3,5.8c-0.5,0-0.9,0.1-1.2,0.3
		c-0.3,0.2-0.6,0.6-0.7,1.2h3.8c-0.1-0.5-0.3-0.9-0.7-1.2C71.1,5.9,70.7,5.8,70.3,5.8z"/>
	<path fill="#EA571C" d="M76.1,3.7h2.5v1h0c0.3-0.4,0.6-0.7,1-0.9c0.4-0.2,1-0.3,1.6-0.3c0.6,0,1.2,0.1,1.7,0.3
		c0.5,0.2,0.8,0.5,1.1,0.9c0.3,0.4,0.5,0.8,0.6,1.3c0.1,0.5,0.2,1.1,0.2,1.6v5h-2.7V8c0-0.3,0-0.5-0.1-0.8C82.1,7,82,6.8,81.9,6.6
		c-0.1-0.2-0.3-0.3-0.5-0.5c-0.2-0.1-0.5-0.2-0.8-0.2c-0.3,0-0.6,0.1-0.8,0.2c-0.2,0.1-0.4,0.3-0.6,0.4C79,6.7,78.9,7,78.9,7.2
		S78.7,7.7,78.7,8v4.6h-2.7V3.7z"/>
	<path fill="#FFFFFF" d="M86.6,0.2h2.7v12.4h-2.7V0.2z"/>
	<path fill="#FFFFFF" d="M92.4,3c-0.5,0-0.9-0.1-1.2-0.4c-0.3-0.3-0.4-0.6-0.4-1.1c0-0.4,0.1-0.8,0.4-1.1C91.6,0.2,91.9,0,92.4,0
		s0.9,0.2,1.2,0.5C93.9,0.8,94,1.1,94,1.5c0,0.4-0.1,0.8-0.4,1.1C93.3,2.9,93,3,92.4,3z M91.1,3.7h2.7v8.9h-2.7V3.7z"/>
	<path fill="#FFFFFF" d="M99.9,12.9c-0.8,0-1.5-0.1-2.1-0.4c-0.6-0.3-1.1-0.6-1.5-1.1s-0.7-0.9-0.9-1.5c-0.2-0.6-0.3-1.1-0.3-1.6
		c0-0.5,0.1-1.1,0.3-1.6C95.6,6,95.9,5.5,96.3,5c0.4-0.4,0.9-0.8,1.5-1.1c0.6-0.3,1.3-0.4,2.1-0.4c0.8,0,1.4,0.1,2,0.4
		c0.6,0.3,1,0.6,1.4,1l-1.8,1.8c-0.2-0.2-0.4-0.4-0.7-0.5c-0.3-0.1-0.5-0.2-0.8-0.2c-0.6,0-1,0.2-1.4,0.6c-0.4,0.4-0.6,0.9-0.6,1.5
		c0,0.6,0.2,1.1,0.6,1.5c0.4,0.4,0.9,0.6,1.4,0.6c0.3,0,0.6-0.1,0.8-0.2c0.3-0.1,0.5-0.3,0.7-0.5l1.8,1.8c-0.3,0.4-0.8,0.7-1.4,1
		C101.3,12.7,100.7,12.9,99.9,12.9z"/>
	<path fill="#FFFFFF" d="M104.4,0.2h2.7v4.4h0c0.2-0.3,0.6-0.6,1-0.8c0.4-0.2,0.9-0.3,1.5-0.3c0.6,0,1.2,0.1,1.7,0.3
		c0.5,0.2,0.8,0.5,1.1,0.9c0.3,0.4,0.5,0.8,0.6,1.3c0.1,0.5,0.2,1.1,0.2,1.6v5h-2.7V8c0-0.3,0-0.5-0.1-0.8c-0.1-0.3-0.1-0.5-0.3-0.7
		c-0.1-0.2-0.3-0.3-0.5-0.5c-0.2-0.1-0.5-0.2-0.8-0.2c-0.3,0-0.6,0.1-0.8,0.2c-0.2,0.1-0.4,0.3-0.6,0.4c-0.2,0.2-0.3,0.4-0.3,0.7
		s-0.1,0.5-0.1,0.8v4.6h-2.7V0.2z"/>
	<path fill="#FFFFFF" d="M118.5,12.8c-2.2,0-3.3-1.2-3.3-3.7V6h-1V3.7h1V1.3h2.7v2.4h3V6h-3v3.2c0,0.5,0.1,0.8,0.3,1
		s0.5,0.3,0.8,0.3c0.3,0,0.5-0.1,0.7-0.2c0.2-0.1,0.4-0.2,0.5-0.4l0.8,2c-0.2,0.2-0.5,0.5-1,0.7C119.7,12.7,119.1,12.8,118.5,12.8z"
		/>
	<path fill="#706F6F" d="M126.9,0.2h2v4.5h0c0.2-0.3,0.6-0.6,1-0.9c0.4-0.2,0.9-0.3,1.6-0.3c1.2,0,2.1,0.3,2.7,1
		c0.6,0.7,0.9,1.6,0.9,2.8v5.2h-2V7.8c0-0.7-0.2-1.3-0.5-1.8s-0.8-0.7-1.6-0.7c-0.7,0-1.2,0.2-1.6,0.7c-0.4,0.4-0.5,1-0.5,1.8v4.9
		h-2V0.2z"/>
	<path fill="#706F6F" d="M141.2,12.9c-0.7,0-1.4-0.1-1.9-0.4s-1-0.6-1.4-1s-0.7-0.9-0.9-1.5c-0.2-0.6-0.3-1.2-0.3-1.8
		c0-0.6,0.1-1.2,0.3-1.8c0.2-0.6,0.5-1.1,0.9-1.5c0.4-0.4,0.8-0.8,1.4-1c0.6-0.3,1.2-0.4,1.9-0.4c0.7,0,1.4,0.1,1.9,0.4
		c0.6,0.2,1,0.6,1.4,1c0.4,0.4,0.7,0.9,0.9,1.5s0.3,1.1,0.3,1.8c0,0.1,0,0.3,0,0.4c0,0.1,0,0.2-0.1,0.3h-6.8c0,0.3,0.1,0.6,0.3,0.9
		c0.2,0.3,0.3,0.5,0.6,0.7c0.2,0.2,0.5,0.3,0.8,0.4c0.3,0.1,0.6,0.2,0.9,0.2c0.5,0,1-0.1,1.4-0.3c0.4-0.2,0.7-0.4,1-0.7l1.3,1.2
		c-0.4,0.5-0.9,0.9-1.5,1.2S142,12.9,141.2,12.9z M141.1,5.3c-0.7,0-1.2,0.2-1.6,0.6c-0.4,0.4-0.7,0.9-0.7,1.5h4.8
		c-0.1-0.6-0.3-1.1-0.8-1.5C142.3,5.5,141.8,5.3,141.1,5.3z"/>
	<path fill="#706F6F" d="M150.5,12.9c-1,0-1.7-0.3-2.2-0.8c-0.5-0.5-0.7-1.3-0.7-2.4V5.5h-1.2V3.7h1.2V1.3h2v2.4h3v1.7h-3v4.1
		c0,0.5,0.1,0.9,0.3,1.1c0.2,0.2,0.5,0.3,0.9,0.3c0.3,0,0.5,0,0.8-0.1c0.2-0.1,0.4-0.2,0.5-0.4l0.7,1.6c-0.2,0.2-0.5,0.4-0.9,0.6
		C151.5,12.8,151,12.9,150.5,12.9z"/>
	<path fill="#706F6F" d="M158.8,3.7h1.9v1.3h0c0.2-0.4,0.5-0.8,1-1.1s1-0.5,1.6-0.5c0.2,0,0.5,0,0.7,0.1s0.4,0.1,0.6,0.2l-0.8,2
		c-0.3-0.2-0.6-0.2-1-0.2c-0.6,0-1.1,0.2-1.5,0.6c-0.4,0.4-0.6,1-0.6,1.7v4.8h-2V3.7z"/>
	<path fill="#706F6F" d="M169.5,12.9c-0.7,0-1.4-0.1-1.9-0.4s-1-0.6-1.4-1s-0.7-0.9-0.9-1.5c-0.2-0.6-0.3-1.2-0.3-1.8
		c0-0.6,0.1-1.2,0.3-1.8c0.2-0.6,0.5-1.1,0.9-1.5c0.4-0.4,0.8-0.8,1.4-1c0.6-0.3,1.2-0.4,1.9-0.4c0.7,0,1.4,0.1,1.9,0.4
		c0.6,0.2,1,0.6,1.4,1c0.4,0.4,0.7,0.9,0.9,1.5c0.2,0.6,0.3,1.1,0.3,1.8c0,0.1,0,0.3,0,0.4c0,0.1,0,0.2-0.1,0.3H167
		c0,0.3,0.1,0.6,0.3,0.9c0.2,0.3,0.3,0.5,0.6,0.7c0.2,0.2,0.5,0.3,0.8,0.4c0.3,0.1,0.6,0.2,0.9,0.2c0.5,0,1-0.1,1.4-0.3
		c0.4-0.2,0.7-0.4,1-0.7l1.3,1.2c-0.4,0.5-0.9,0.9-1.5,1.2C171,12.7,170.3,12.9,169.5,12.9z M169.4,5.3c-0.7,0-1.2,0.2-1.6,0.6
		c-0.4,0.4-0.7,0.9-0.7,1.5h4.8c-0.1-0.6-0.3-1.1-0.8-1.5C170.6,5.5,170,5.3,169.4,5.3z"/>
	<path fill="#706F6F" d="M175.5,3.7h1.9v1.1h0c0.2-0.4,0.6-0.7,1-0.9c0.4-0.2,1-0.4,1.6-0.4c1.2,0,2.1,0.3,2.7,1
		c0.6,0.7,0.9,1.6,0.9,2.8v5.2h-2V7.8c0-0.7-0.2-1.3-0.5-1.8s-0.8-0.7-1.6-0.7c-0.7,0-1.2,0.2-1.6,0.7c-0.4,0.4-0.5,1-0.5,1.8v4.9
		h-2V3.7z"/>
	<path fill="#706F6F" d="M189.6,12.9c-0.7,0-1.4-0.1-1.9-0.4s-1-0.6-1.4-1.1c-0.4-0.4-0.6-0.9-0.8-1.5c-0.2-0.6-0.3-1.1-0.3-1.7
		c0-0.6,0.1-1.2,0.3-1.8c0.2-0.6,0.5-1.1,0.9-1.5c0.4-0.4,0.8-0.7,1.4-1c0.5-0.2,1.1-0.4,1.8-0.4c0.8,0,1.4,0.1,1.9,0.4
		c0.5,0.3,0.8,0.6,1.1,1h0V0.2h2v12.4h-1.9v-1.3h0c-0.3,0.4-0.6,0.8-1.2,1.1C191,12.7,190.3,12.9,189.6,12.9z M189.9,11
		c0.4,0,0.7-0.1,1-0.2c0.3-0.1,0.6-0.3,0.8-0.6s0.4-0.5,0.5-0.9c0.1-0.3,0.2-0.7,0.2-1.1s-0.1-0.8-0.2-1.1c-0.1-0.3-0.3-0.6-0.5-0.9
		c-0.2-0.3-0.5-0.4-0.8-0.6c-0.3-0.1-0.7-0.2-1.1-0.2c-0.4,0-0.8,0.1-1.1,0.2c-0.3,0.1-0.6,0.3-0.8,0.6c-0.2,0.3-0.4,0.5-0.5,0.9
		c-0.1,0.3-0.2,0.7-0.2,1.1s0.1,0.8,0.2,1.1c0.1,0.3,0.3,0.6,0.6,0.9s0.5,0.4,0.8,0.6S189.6,11,189.9,11z"/>
	<path fill="#706F6F" d="M200.9,12.9c-0.7,0-1.4-0.1-1.9-0.4s-1-0.6-1.4-1c-0.4-0.4-0.7-0.9-0.9-1.5c-0.2-0.6-0.3-1.2-0.3-1.8
		c0-0.6,0.1-1.2,0.3-1.8s0.5-1.1,0.9-1.5c0.4-0.4,0.8-0.8,1.4-1s1.2-0.4,1.9-0.4c0.7,0,1.4,0.1,1.9,0.4c0.6,0.2,1,0.6,1.4,1
		c0.4,0.4,0.7,0.9,0.9,1.5c0.2,0.6,0.3,1.1,0.3,1.8c0,0.1,0,0.3,0,0.4c0,0.1,0,0.2-0.1,0.3h-6.8c0,0.3,0.1,0.6,0.3,0.9
		c0.2,0.3,0.3,0.5,0.6,0.7c0.2,0.2,0.5,0.3,0.8,0.4c0.3,0.1,0.6,0.2,0.9,0.2c0.5,0,1-0.1,1.4-0.3c0.4-0.2,0.7-0.4,1-0.7l1.3,1.2
		c-0.4,0.5-0.9,0.9-1.5,1.2S201.7,12.9,200.9,12.9z M200.8,5.3c-0.7,0-1.2,0.2-1.6,0.6c-0.4,0.4-0.7,0.9-0.7,1.5h4.8
		c-0.1-0.6-0.3-1.1-0.8-1.5C202,5.5,201.4,5.3,200.8,5.3z"/>
	<path fill="#706F6F" d="M206.9,3.7h1.9v1.1h0c0.2-0.4,0.6-0.7,1-0.9c0.4-0.2,1-0.4,1.6-0.4c0.7,0,1.3,0.1,1.8,0.4
		c0.5,0.3,0.8,0.6,1.1,1.1c0.3-0.5,0.7-0.8,1.3-1.1c0.6-0.3,1.2-0.4,2-0.4c1.2,0,2.1,0.4,2.7,1.1c0.6,0.7,0.9,1.6,0.9,2.8v5.2h-2
		V7.8c0-0.7-0.2-1.3-0.5-1.8s-0.8-0.7-1.5-0.7c-0.7,0-1.2,0.2-1.6,0.7c-0.4,0.4-0.6,1-0.6,1.8v4.9h-2V7.8c0-0.7-0.2-1.3-0.5-1.8
		s-0.8-0.7-1.6-0.7c-0.7,0-1.2,0.2-1.6,0.7c-0.4,0.4-0.5,1-0.5,1.8v4.9h-2V3.7z"/>
	<path fill="#706F6F" d="M227.4,12.9c-0.7,0-1.4-0.1-1.9-0.4s-1-0.6-1.4-1c-0.4-0.4-0.7-0.9-0.9-1.5c-0.2-0.6-0.3-1.2-0.3-1.8
		c0-0.6,0.1-1.2,0.3-1.8s0.5-1.1,0.9-1.5c0.4-0.4,0.8-0.8,1.4-1s1.2-0.4,1.9-0.4c0.7,0,1.4,0.1,1.9,0.4c0.6,0.2,1,0.6,1.4,1
		c0.4,0.4,0.7,0.9,0.9,1.5c0.2,0.6,0.3,1.1,0.3,1.8c0,0.1,0,0.3,0,0.4c0,0.1,0,0.2-0.1,0.3h-6.8c0,0.3,0.1,0.6,0.3,0.9
		c0.2,0.3,0.3,0.5,0.6,0.7c0.2,0.2,0.5,0.3,0.8,0.4c0.3,0.1,0.6,0.2,0.9,0.2c0.5,0,1-0.1,1.4-0.3c0.4-0.2,0.7-0.4,1-0.7l1.3,1.2
		c-0.4,0.5-0.9,0.9-1.5,1.2S228.2,12.9,227.4,12.9z M227.2,5.3c-0.7,0-1.2,0.2-1.6,0.6c-0.4,0.4-0.7,0.9-0.7,1.5h4.8
		c-0.1-0.6-0.3-1.1-0.8-1.5C228.4,5.5,227.9,5.3,227.2,5.3z"/>
	<path fill="#706F6F" d="M233.4,3.7h1.9v1.1h0c0.2-0.4,0.6-0.7,1-0.9c0.4-0.2,1-0.4,1.6-0.4c1.2,0,2.1,0.3,2.7,1
		c0.6,0.7,0.9,1.6,0.9,2.8v5.2h-2V7.8c0-0.7-0.2-1.3-0.5-1.8s-0.8-0.7-1.6-0.7c-0.7,0-1.2,0.2-1.6,0.7c-0.4,0.4-0.5,1-0.5,1.8v4.9
		h-2V3.7z"/>
	<path fill="#706F6F" d="M247,12.9c-1,0-1.7-0.3-2.2-0.8c-0.5-0.5-0.7-1.3-0.7-2.4V5.5h-1.2V3.7h1.2V1.3h2v2.4h3v1.7h-3v4.1
		c0,0.5,0.1,0.9,0.3,1.1c0.2,0.2,0.5,0.3,0.9,0.3c0.3,0,0.5,0,0.8-0.1c0.2-0.1,0.4-0.2,0.5-0.4l0.7,1.6c-0.2,0.2-0.5,0.4-0.9,0.6
		S247.5,12.9,247,12.9z"/>
	<path fill="#706F6F" d="M254.4,3.7h2.2l2,6.3h0l2-6.3h2.1l-3,8.9h-2.2L254.4,3.7z"/>
	<path fill="#706F6F" d="M266.5,12.9c-0.5,0-0.9-0.1-1.3-0.2c-0.4-0.1-0.7-0.3-1-0.5c-0.3-0.2-0.5-0.5-0.7-0.8
		c-0.2-0.3-0.2-0.7-0.2-1.1c0-0.9,0.3-1.5,0.9-2c0.6-0.5,1.4-0.7,2.5-0.7c0.5,0,1,0.1,1.4,0.2s0.8,0.2,1.1,0.4V7.2
		c0-0.6-0.2-1.1-0.6-1.4c-0.4-0.3-0.9-0.5-1.4-0.5c-0.5,0-0.9,0.1-1.2,0.2c-0.4,0.1-0.6,0.3-0.8,0.6L263.9,5c0.3-0.4,0.8-0.7,1.4-1
		s1.3-0.4,2.1-0.4c1.3,0,2.3,0.3,2.9,0.9c0.6,0.6,1,1.5,1,2.5v5.7h-2v-0.9h0c-0.2,0.4-0.6,0.6-1,0.8S267.2,12.9,266.5,12.9z
		 M267.2,11.3c0.6,0,1.1-0.2,1.5-0.5c0.4-0.3,0.6-0.8,0.6-1.4V9.3c-0.3-0.1-0.6-0.2-0.9-0.2C268,9,267.6,9,267.2,9
		c-0.6,0-1,0.1-1.3,0.3c-0.3,0.2-0.5,0.5-0.5,0.9c0,0.4,0.2,0.6,0.5,0.8C266.2,11.2,266.6,11.3,267.2,11.3z"/>
	<path fill="#706F6F" d="M273.3,3.7h1.9v1.1h0c0.2-0.4,0.6-0.7,1-0.9c0.4-0.2,1-0.4,1.6-0.4c1.2,0,2.1,0.3,2.7,1
		c0.6,0.7,0.9,1.6,0.9,2.8v5.2h-2V7.8c0-0.7-0.2-1.3-0.5-1.8s-0.8-0.7-1.6-0.7c-0.7,0-1.2,0.2-1.6,0.7c-0.4,0.4-0.5,1-0.5,1.8v4.9
		h-2V3.7z"/>
	<path fill="#706F6F" d="M292.1,15.8c-0.8,0-1.5-0.1-2.2-0.4c-0.6-0.3-1.1-0.6-1.4-1l1.4-1.3c0.2,0.3,0.5,0.5,0.9,0.6
		s0.8,0.2,1.3,0.2c0.3,0,0.7,0,1-0.1c0.3-0.1,0.5-0.2,0.8-0.4c0.2-0.2,0.4-0.4,0.5-0.7c0.1-0.3,0.2-0.6,0.2-1v-0.9h0
		c-0.2,0.3-0.5,0.6-1,0.9c-0.5,0.3-1,0.4-1.7,0.4c-0.7,0-1.3-0.1-1.8-0.4s-1-0.6-1.3-1c-0.3-0.4-0.6-0.9-0.8-1.4
		c-0.2-0.5-0.3-1-0.3-1.6c0-0.6,0.1-1.1,0.3-1.6c0.2-0.5,0.5-1,0.8-1.4c0.4-0.4,0.8-0.7,1.3-0.9c0.5-0.2,1.1-0.3,1.7-0.3
		c0.7,0,1.3,0.1,1.8,0.4c0.5,0.3,0.9,0.6,1.1,1h0V3.7h1.9v8.1c0,0.6-0.1,1.1-0.3,1.6c-0.2,0.5-0.5,0.9-0.8,1.2
		c-0.4,0.3-0.8,0.6-1.4,0.8C293.5,15.7,292.8,15.8,292.1,15.8z M292,10.3c0.3,0,0.7-0.1,1-0.2c0.3-0.1,0.6-0.3,0.8-0.5
		c0.2-0.2,0.4-0.5,0.5-0.8c0.1-0.3,0.2-0.6,0.2-1s-0.1-0.7-0.2-1c-0.1-0.3-0.3-0.6-0.5-0.8c-0.2-0.2-0.5-0.4-0.8-0.5
		c-0.3-0.1-0.6-0.2-1-0.2c-0.4,0-0.7,0.1-1,0.2s-0.5,0.3-0.8,0.5c-0.2,0.2-0.4,0.5-0.5,0.8c-0.1,0.3-0.2,0.6-0.2,1s0.1,0.7,0.2,1
		c0.1,0.3,0.3,0.6,0.5,0.8s0.5,0.4,0.8,0.5C291.4,10.2,291.7,10.3,292,10.3z"/>
	<path fill="#706F6F" d="M302.8,12.9c-0.7,0-1.4-0.1-1.9-0.4s-1-0.6-1.4-1c-0.4-0.4-0.7-0.9-0.9-1.5c-0.2-0.6-0.3-1.2-0.3-1.8
		c0-0.6,0.1-1.2,0.3-1.8c0.2-0.6,0.5-1.1,0.9-1.5c0.4-0.4,0.8-0.8,1.4-1c0.6-0.3,1.2-0.4,1.9-0.4c0.7,0,1.4,0.1,1.9,0.4
		c0.6,0.2,1,0.6,1.4,1c0.4,0.4,0.7,0.9,0.9,1.5c0.2,0.6,0.3,1.1,0.3,1.8c0,0.1,0,0.3,0,0.4c0,0.1,0,0.2-0.1,0.3h-6.8
		c0,0.3,0.1,0.6,0.3,0.9c0.2,0.3,0.3,0.5,0.6,0.7c0.2,0.2,0.5,0.3,0.8,0.4c0.3,0.1,0.6,0.2,0.9,0.2c0.5,0,1-0.1,1.4-0.3
		c0.4-0.2,0.7-0.4,1-0.7l1.3,1.2c-0.4,0.5-0.9,0.9-1.5,1.2S303.6,12.9,302.8,12.9z M302.7,5.3c-0.7,0-1.2,0.2-1.6,0.6
		c-0.4,0.4-0.7,0.9-0.7,1.5h4.8c-0.1-0.6-0.3-1.1-0.8-1.5C303.9,5.5,303.3,5.3,302.7,5.3z"/>
	<path fill="#706F6F" d="M308.8,0.2h2v12.4h-2V0.2z"/>
	<path fill="#706F6F" d="M316.5,12.9c-1.2,0-2.1-0.4-2.7-1.1s-0.9-1.6-0.9-2.8V3.7h2v4.9c0,0.7,0.2,1.3,0.5,1.7
		c0.3,0.4,0.8,0.7,1.5,0.7c0.7,0,1.2-0.2,1.5-0.7c0.3-0.4,0.5-1,0.5-1.7V3.7h2v8.9h-1.9v-1.1h0c-0.2,0.4-0.6,0.7-1,0.9
		C317.7,12.7,317.1,12.9,316.5,12.9z"/>
	<path fill="#706F6F" d="M323.4,0.2h2v9.4h0l4.1-5.9h2.4l-3,4.2l3.2,4.7h-2.4l-2.1-3.2l-2.3,3.2h-1.9V0.2z"/>
</g>
</svg>
