<?xml version="1.0" encoding="utf-8"?>
<!-- Generator: Adobe Illustrator 18.0.0, SVG Export Plug-In . SVG Version: 6.00 Build 0)  -->
<!DOCTYPE svg PUBLIC "-//W3C//DTD SVG 1.1//EN" "http://www.w3.org/Graphics/SVG/1.1/DTD/svg11.dtd">
<svg version="1.1" id="Layer_1" xmlns="http://www.w3.org/2000/svg" xmlns:xlink="http://www.w3.org/1999/xlink" x="0px" y="0px"
	 viewBox="0 0 271.8 68.8" enable-background="new 0 0 271.8 68.8" xml:space="preserve">
<g>
	<path fill="#FFFFFF" d="M0,0.6h7.1v3h0.1c0.7-1.1,1.7-2,2.9-2.6c1.2-0.6,2.7-1,4.5-1c2,0,3.7,0.3,4.9,1c1.3,0.7,2.3,1.6,3.1,2.8
		c0.9-1.2,2.1-2.1,3.6-2.8c1.5-0.7,3.5-1,5.8-1c1.8,0,3.4,0.3,4.7,0.9c1.3,0.6,2.4,1.4,3.2,2.4c0.8,1,1.4,2.3,1.8,3.7
		c0.4,1.4,0.6,3,0.6,4.6v14.2H35V12.7c0-0.7-0.1-1.5-0.2-2.2c-0.2-0.7-0.4-1.3-0.8-1.9c-0.4-0.5-0.9-1-1.5-1.3
		c-0.6-0.3-1.4-0.5-2.3-0.5c-0.9,0-1.6,0.2-2.3,0.5c-0.6,0.3-1.2,0.7-1.6,1.3c-0.4,0.5-0.8,1.1-1,1.9c-0.2,0.7-0.3,1.5-0.3,2.2v13.1
		h-7.5V12.7c0-0.7-0.1-1.5-0.2-2.2c-0.2-0.7-0.4-1.3-0.8-1.9c-0.4-0.5-0.9-1-1.5-1.3c-0.6-0.3-1.4-0.5-2.3-0.5
		c-0.9,0-1.6,0.2-2.3,0.5C9.8,7.6,9.3,8.1,8.8,8.6c-0.4,0.5-0.8,1.1-1,1.9c-0.2,0.7-0.3,1.5-0.3,2.2v13.1H0V0.6z"/>
	<path fill="#FFFFFF" d="M54.2,26.4c-2.8,0-5-0.7-6.6-2.1c-1.6-1.4-2.4-3.3-2.4-5.6c0-2.4,0.8-4.4,2.5-5.7c1.7-1.4,4.2-2.1,7.5-2.1
		c1.4,0,2.6,0.1,3.8,0.4c1.2,0.2,2.2,0.5,3,0.9v-0.9c0-1.6-0.5-2.7-1.5-3.5c-1-0.7-2.2-1.1-3.6-1.1c-1.1,0-2.2,0.2-3.2,0.5
		c-1,0.4-1.8,0.8-2.3,1.5l-4.6-4.4c1-1.2,2.3-2.2,4.1-3C52.7,0.4,54.8,0,57.1,0c2.1,0,4,0.3,5.5,0.8c1.5,0.5,2.7,1.2,3.7,2.1
		c1,0.9,1.7,2,2.1,3.3c0.4,1.3,0.7,2.7,0.7,4.2v15.4H62v-2.3h-0.1c-0.7,1-1.7,1.7-2.9,2.2C57.7,26.2,56.2,26.4,54.2,26.4z M57,21.1
		c1.5,0,2.7-0.4,3.6-1.2c0.9-0.8,1.4-1.9,1.4-3.3v-0.1c-0.7-0.2-1.5-0.3-2.2-0.4C59,16.1,58.1,16,57.1,16c-2.9,0-4.4,0.9-4.4,2.6
		c0,0.9,0.4,1.5,1.2,1.9C54.7,20.9,55.7,21.1,57,21.1z"/>
	<path fill="#FFFFFF" d="M73.8,0.6h7.1v3H81c0.7-1.1,1.7-2,2.9-2.6c1.2-0.6,2.7-1,4.5-1c1.8,0,3.4,0.3,4.7,0.9
		c1.3,0.6,2.4,1.4,3.2,2.4c0.8,1,1.4,2.3,1.8,3.7c0.4,1.4,0.6,3,0.6,4.6v14.2h-7.5V12.7c0-0.7-0.1-1.5-0.2-2.2
		c-0.2-0.7-0.4-1.3-0.8-1.9c-0.4-0.5-0.9-1-1.5-1.3c-0.6-0.3-1.4-0.5-2.3-0.5c-0.9,0-1.6,0.2-2.3,0.5c-0.6,0.3-1.2,0.7-1.6,1.3
		c-0.4,0.5-0.8,1.1-1,1.9c-0.2,0.7-0.3,1.5-0.3,2.2v13.1h-7.5V0.6z"/>
	<path fill="#FFFFFF" d="M103.6,0.6h7.1v3h0.1c0.7-1.1,1.7-2,2.9-2.6c1.2-0.6,2.7-1,4.5-1c1.8,0,3.4,0.3,4.7,0.9
		c1.3,0.6,2.4,1.4,3.2,2.4c0.8,1,1.4,2.3,1.8,3.7c0.4,1.4,0.6,3,0.6,4.6v14.2h-7.5V12.7c0-0.7-0.1-1.5-0.2-2.2
		c-0.2-0.7-0.4-1.3-0.8-1.9c-0.4-0.5-0.9-1-1.5-1.3c-0.6-0.3-1.4-0.5-2.3-0.5c-0.9,0-1.6,0.2-2.3,0.5c-0.6,0.3-1.2,0.7-1.6,1.3
		c-0.4,0.5-0.8,1.1-1,1.9c-0.2,0.7-0.3,1.5-0.3,2.2v13.1h-7.5V0.6z"/>
	<path fill="#FFFFFF" d="M145.2,26.4c-2.3,0-4.2-0.4-5.9-1.2s-3.1-1.8-4.2-3.1c-1.1-1.3-1.9-2.7-2.4-4.3c-0.5-1.6-0.8-3.1-0.8-4.7
		c0-1.5,0.2-3.1,0.7-4.7c0.5-1.6,1.3-3,2.3-4.3c1-1.3,2.4-2.3,4-3.1c1.6-0.8,3.6-1.2,5.9-1.2s4.2,0.4,5.8,1.2c1.6,0.8,2.9,1.8,4,3.1
		c1,1.3,1.8,2.7,2.2,4.3c0.5,1.6,0.7,3.1,0.7,4.7c0,0.4,0,0.8-0.1,1.4c-0.1,0.5-0.1,0.9-0.2,1.2h-17.7c0.2,0.7,0.5,1.3,0.9,1.8
		c0.4,0.5,0.9,0.9,1.4,1.2c0.5,0.3,1.1,0.6,1.7,0.7c0.6,0.2,1.2,0.2,1.9,0.2c1.1,0,2.2-0.2,3.2-0.5c1-0.4,1.8-0.8,2.3-1.5l4.6,4.4
		c-1,1.2-2.3,2.2-4.1,3C149.6,26,147.5,26.4,145.2,26.4z M144.8,6.3c-1.3,0-2.4,0.3-3.4,1c-1,0.6-1.6,1.7-1.9,3.3h10.7
		c-0.3-1.5-0.9-2.6-1.9-3.3C147.2,6.6,146.1,6.3,144.8,6.3z"/>
	<path fill="#FFFFFF" d="M161.2,0.6h7.1v3h0.1c0.7-1.1,1.7-2,2.9-2.6c1.2-0.6,2.7-1,4.5-1c1.8,0,3.4,0.3,4.7,0.9
		c1.3,0.6,2.4,1.4,3.2,2.4c0.8,1,1.4,2.3,1.8,3.7c0.4,1.4,0.6,3,0.6,4.6v14.2h-7.5V12.7c0-0.7-0.1-1.5-0.2-2.2
		c-0.2-0.7-0.4-1.3-0.8-1.9c-0.4-0.5-0.9-1-1.5-1.3c-0.6-0.3-1.4-0.5-2.3-0.5c-0.9,0-1.6,0.2-2.3,0.5c-0.6,0.3-1.2,0.7-1.6,1.3
		c-0.4,0.5-0.8,1.1-1,1.9c-0.2,0.7-0.3,1.5-0.3,2.2v13.1h-7.5V0.6z"/>
	<path fill="#FFFFFF" d="M69.7,43h8.1l4.6,15.7h0.1L87,43h7.9l-8.6,25.2h-8L69.7,43z"/>
	<path fill="#FFFFFF" d="M97.9,43h7.1v3.5h0.1c0.7-1.1,1.7-2,3-2.9s3-1.2,4.9-1.2c1.3,0,2.6,0.2,3.8,0.6l-2.7,7.4
		c-0.8-0.5-1.8-0.7-2.8-0.7c-0.8,0-1.5,0.1-2.2,0.4c-0.7,0.3-1.3,0.7-1.9,1.2s-0.9,1.1-1.2,1.9c-0.3,0.7-0.5,1.6-0.5,2.5v12.6h-7.5
		V43z"/>
	<path fill="#FFFFFF" d="M130.2,68.8c-2.3,0-4.3-0.4-6-1.2c-1.7-0.8-3.1-1.8-4.2-3.1c-1.1-1.3-2-2.7-2.5-4.3
		c-0.5-1.6-0.8-3.1-0.8-4.7c0-1.5,0.3-3.1,0.8-4.7c0.5-1.6,1.4-3,2.5-4.3c1.1-1.3,2.5-2.3,4.2-3.1c1.7-0.8,3.7-1.2,6-1.2
		c2.3,0,4.3,0.4,6,1.2c1.7,0.8,3.1,1.8,4.2,3.1c1.1,1.3,2,2.7,2.5,4.3c0.5,1.6,0.8,3.1,0.8,4.7c0,1.5-0.3,3.1-0.8,4.7
		c-0.5,1.6-1.4,3-2.5,4.3c-1.1,1.3-2.5,2.3-4.2,3.1C134.5,68.4,132.5,68.8,130.2,68.8z M130.2,61.7c0.8,0,1.5-0.2,2.2-0.5
		c0.7-0.3,1.3-0.7,1.9-1.2c0.5-0.5,0.9-1.2,1.2-1.9c0.3-0.7,0.5-1.6,0.5-2.4c0-0.9-0.2-1.7-0.5-2.4c-0.3-0.7-0.7-1.4-1.2-1.9
		c-0.5-0.5-1.1-1-1.9-1.3c-0.7-0.3-1.5-0.5-2.2-0.5c-0.8,0-1.5,0.2-2.2,0.5c-0.7,0.3-1.3,0.7-1.9,1.3c-0.5,0.5-0.9,1.2-1.2,1.9
		c-0.3,0.7-0.5,1.6-0.5,2.4c0,0.9,0.2,1.7,0.5,2.4c0.3,0.7,0.7,1.4,1.2,1.9c0.5,0.5,1.1,0.9,1.9,1.2
		C128.7,61.5,129.5,61.7,130.2,61.7z"/>
	<path fill="#FFFFFF" d="M157.2,68.8c-1.8,0-3.4-0.3-4.7-0.8c-1.3-0.6-2.3-1.4-3.2-2.4c-0.8-1-1.4-2.2-1.8-3.6
		c-0.4-1.4-0.6-3-0.6-4.7V43h7.5v13.3c0,0.7,0.1,1.5,0.2,2.1s0.4,1.3,0.7,1.8s0.8,0.9,1.4,1.2s1.3,0.5,2.2,0.5c1.7,0,3-0.6,3.8-1.7
		c0.8-1.1,1.2-2.5,1.2-4.1V43h7.5v25.2h-7.1v-3h-0.1c-0.7,1.1-1.7,2-2.8,2.6S159,68.8,157.2,68.8z"/>
	<path fill="#FFFFFF" d="M174.6,43h8.1l4.6,15.7h0.1L192,43h7.5l4.6,15.7h0.1l4.6-15.7h7.9L208,68.2h-7.5l-4.8-15l-4.8,15h-7.7
		L174.6,43z"/>
	<path fill="#FFFFFF" d="M230.8,68.8c-2.3,0-4.3-0.4-5.9-1.2c-1.7-0.8-3.1-1.8-4.2-3.1c-1.1-1.3-1.9-2.7-2.4-4.3s-0.8-3.1-0.8-4.7
		c0-1.5,0.2-3.1,0.7-4.7s1.3-3,2.3-4.3c1-1.3,2.4-2.3,4-3.1c1.6-0.8,3.6-1.2,5.9-1.2c2.3,0,4.2,0.4,5.8,1.2c1.6,0.8,2.9,1.8,4,3.1
		c1,1.3,1.8,2.7,2.2,4.3s0.7,3.1,0.7,4.7c0,0.4,0,0.8-0.1,1.4c-0.1,0.5-0.1,0.9-0.2,1.2h-17.7c0.2,0.7,0.5,1.3,0.9,1.8
		c0.4,0.5,0.9,0.9,1.4,1.2c0.5,0.3,1.1,0.6,1.7,0.7s1.2,0.2,1.9,0.2c1.1,0,2.2-0.2,3.2-0.5c1-0.4,1.8-0.8,2.3-1.5l4.6,4.4
		c-1,1.2-2.3,2.2-4.1,3S233.1,68.8,230.8,68.8z M230.4,48.7c-1.3,0-2.4,0.3-3.4,1c-1,0.6-1.6,1.7-1.9,3.3h10.7
		c-0.3-1.5-0.9-2.6-1.9-3.3C232.8,49,231.6,48.7,230.4,48.7z"/>
	<path fill="#FFFFFF" d="M246.8,43h7.1v3h0.1c0.7-1.1,1.7-2,2.9-2.6c1.2-0.6,2.7-1,4.5-1c1.8,0,3.4,0.3,4.7,0.9
		c1.3,0.6,2.4,1.4,3.2,2.4c0.8,1,1.4,2.3,1.8,3.7c0.4,1.4,0.6,3,0.6,4.6v14.2h-7.5V55.1c0-0.7-0.1-1.5-0.2-2.2
		c-0.2-0.7-0.4-1.3-0.8-1.9c-0.4-0.5-0.9-1-1.5-1.3c-0.6-0.3-1.4-0.5-2.3-0.5c-0.9,0-1.6,0.2-2.3,0.5c-0.6,0.3-1.2,0.7-1.6,1.3
		c-0.4,0.5-0.8,1.1-1,1.9c-0.2,0.7-0.3,1.5-0.3,2.2v13.1h-7.5V43z"/>
</g>
<circle cx="54.5" cy="43" r="22.2"/>
<g>
	<path fill="#FFFFFF" d="M43,36.6h3.8l2.1,7.3h0l2.1-7.3h3.7l-4,11.7H47L43,36.6z"/>
	<path fill="#FFFFFF" d="M60.3,48.7c-0.6,0-1.1,0-1.7-0.1c-0.5-0.1-1-0.2-1.5-0.4c-0.5-0.2-0.9-0.4-1.2-0.6s-0.7-0.5-0.9-0.7
		l2.1-2.1c0.1,0.1,0.3,0.3,0.5,0.4c0.2,0.1,0.5,0.2,0.7,0.3c0.3,0.1,0.6,0.2,0.9,0.2c0.3,0.1,0.6,0.1,0.9,0.1c0.5,0,0.9-0.1,1.2-0.2
		c0.3-0.1,0.5-0.4,0.5-0.7c0-0.3-0.2-0.6-0.7-0.7c-0.5-0.1-1.2-0.3-2-0.4c-0.5-0.1-0.9-0.2-1.4-0.4c-0.4-0.2-0.8-0.4-1.2-0.7
		c-0.3-0.3-0.6-0.6-0.8-1s-0.3-0.9-0.3-1.4c0-0.6,0.1-1.1,0.4-1.6c0.3-0.5,0.6-0.9,1.1-1.2c0.5-0.3,1-0.6,1.6-0.7
		c0.6-0.2,1.3-0.2,2.1-0.2c1.2,0,2.2,0.2,3,0.5c0.8,0.4,1.5,0.8,1.9,1.3l-2.2,2.1c-0.3-0.3-0.6-0.5-1.1-0.7c-0.5-0.2-1-0.3-1.5-0.3
		c-0.5,0-0.9,0.1-1.2,0.2c-0.3,0.1-0.5,0.3-0.5,0.7c0,0.3,0.2,0.6,0.7,0.7c0.5,0.1,1.2,0.3,2,0.4c0.5,0.1,0.9,0.2,1.4,0.4
		s0.8,0.4,1.2,0.7c0.3,0.3,0.6,0.6,0.8,1c0.2,0.4,0.3,0.9,0.3,1.4c0,0.6-0.1,1.2-0.4,1.7c-0.3,0.5-0.6,0.9-1.1,1.2
		c-0.5,0.3-1,0.6-1.7,0.8C61.8,48.6,61.1,48.7,60.3,48.7z"/>
</g>
</svg>
