<?xml version="1.0" encoding="utf-8"?>
<!-- Generator: Adobe Illustrator 18.0.0, SVG Export Plug-In . SVG Version: 6.00 Build 0)  -->
<!DOCTYPE svg PUBLIC "-//W3C//DTD SVG 1.1//EN" "http://www.w3.org/Graphics/SVG/1.1/DTD/svg11.dtd">
<svg version="1.1" id="Layer_1" xmlns="http://www.w3.org/2000/svg" xmlns:xlink="http://www.w3.org/1999/xlink" x="0px" y="0px"
	 viewBox="0 0 397.1 107.2" enable-background="new 0 0 397.1 107.2" xml:space="preserve">
<g>
	<path fill="#FFFFFF" d="M2.7,18.9h7.1v3h0.1c0.7-1.1,1.7-2,2.9-2.6c1.2-0.6,2.7-1,4.5-1c2,0,3.7,0.3,4.9,1c1.3,0.7,2.3,1.6,3.1,2.8
		c0.9-1.2,2.1-2.1,3.6-2.8c1.5-0.7,3.5-1,5.8-1c1.8,0,3.4,0.3,4.7,0.9c1.3,0.6,2.4,1.4,3.2,2.4c0.8,1,1.4,2.3,1.8,3.7
		c0.4,1.4,0.6,3,0.6,4.6v14.2h-7.5V31c0-0.7-0.1-1.5-0.2-2.2c-0.2-0.7-0.4-1.3-0.8-1.9c-0.4-0.5-0.9-1-1.5-1.3
		c-0.6-0.3-1.4-0.5-2.3-0.5c-0.9,0-1.6,0.2-2.3,0.5c-0.6,0.3-1.2,0.7-1.6,1.3c-0.4,0.5-0.8,1.1-1,1.9s-0.3,1.5-0.3,2.2v13.1h-7.5V31
		c0-0.7-0.1-1.5-0.2-2.2c-0.2-0.7-0.4-1.3-0.8-1.9c-0.4-0.5-0.9-1-1.5-1.3c-0.6-0.3-1.4-0.5-2.3-0.5c-0.9,0-1.6,0.2-2.3,0.5
		c-0.6,0.3-1.2,0.7-1.6,1.3c-0.4,0.5-0.8,1.1-1,1.9s-0.3,1.5-0.3,2.2v13.1H2.7V18.9z"/>
	<path fill="#FFFFFF" d="M53.7,16.8c-1.4,0-2.5-0.4-3.3-1.2c-0.8-0.8-1.2-1.8-1.2-3c0-1.2,0.4-2.2,1.2-3c0.8-0.8,1.9-1.3,3.3-1.3
		s2.5,0.4,3.3,1.3c0.8,0.9,1.2,1.9,1.2,3c0,1.2-0.4,2.2-1.2,3C56.2,16.4,55.1,16.8,53.7,16.8z M49.9,18.9h7.5v25.2h-7.5V18.9z"/>
	<path fill="#FFFFFF" d="M62.7,8.9h7.5v35.2h-7.5V8.9z"/>
	<path fill="#FFFFFF" d="M75.6,8.9h7.5v35.2h-7.5V8.9z"/>
	<path fill="#FFFFFF" d="M100.3,44.7c-2.3,0-4.3-0.4-5.9-1.2c-1.7-0.8-3.1-1.8-4.2-3.1c-1.1-1.3-1.9-2.7-2.4-4.3
		C87.3,34.6,87,33,87,31.5c0-1.5,0.2-3.1,0.7-4.7c0.5-1.6,1.3-3,2.3-4.3c1-1.3,2.4-2.3,4-3.1c1.6-0.8,3.6-1.2,5.9-1.2
		c2.3,0,4.2,0.4,5.8,1.2c1.6,0.8,2.9,1.8,4,3.1c1,1.3,1.8,2.7,2.2,4.3c0.5,1.6,0.7,3.1,0.7,4.7c0,0.4,0,0.8-0.1,1.4
		c-0.1,0.5-0.1,0.9-0.2,1.2H94.7c0.2,0.7,0.5,1.3,0.9,1.8c0.4,0.5,0.9,0.9,1.4,1.2c0.5,0.3,1.1,0.6,1.7,0.7c0.6,0.2,1.2,0.2,1.9,0.2
		c1.1,0,2.2-0.2,3.2-0.5c1-0.4,1.8-0.8,2.3-1.5l4.6,4.4c-1,1.2-2.3,2.2-4.1,3C104.7,44.3,102.7,44.7,100.3,44.7z M99.9,24.6
		c-1.3,0-2.4,0.3-3.4,1c-1,0.6-1.6,1.7-1.9,3.3h10.7c-0.3-1.5-0.9-2.6-1.9-3.3C102.3,24.9,101.2,24.6,99.9,24.6z"/>
	<path fill="#FFFFFF" d="M116.3,18.9h7.1v3h0.1c0.7-1.1,1.7-2,2.9-2.6c1.2-0.6,2.7-1,4.5-1c1.8,0,3.4,0.3,4.7,0.9
		c1.3,0.6,2.4,1.4,3.2,2.4c0.8,1,1.4,2.3,1.8,3.7c0.4,1.4,0.6,3,0.6,4.6v14.2h-7.5V31c0-0.7-0.1-1.5-0.2-2.2
		c-0.2-0.7-0.4-1.3-0.8-1.9c-0.4-0.5-0.9-1-1.5-1.3c-0.6-0.3-1.4-0.5-2.3-0.5c-0.9,0-1.6,0.2-2.3,0.5c-0.6,0.3-1.2,0.7-1.6,1.3
		c-0.4,0.5-0.8,1.1-1,1.9s-0.3,1.5-0.3,2.2v13.1h-7.5V18.9z"/>
	<path fill="#FFFFFF" d="M146.1,18.9h7.1v3h0.1c0.7-1.1,1.7-2,2.9-2.6c1.2-0.6,2.7-1,4.5-1c1.8,0,3.4,0.3,4.7,0.9
		c1.3,0.6,2.4,1.4,3.2,2.4c0.8,1,1.4,2.3,1.8,3.7c0.4,1.4,0.6,3,0.6,4.6v14.2h-7.5V31c0-0.7-0.1-1.5-0.2-2.2
		c-0.2-0.7-0.4-1.3-0.8-1.9c-0.4-0.5-0.9-1-1.5-1.3c-0.6-0.3-1.4-0.5-2.3-0.5c-0.9,0-1.6,0.2-2.3,0.5c-0.6,0.3-1.2,0.7-1.6,1.3
		c-0.4,0.5-0.8,1.1-1,1.9s-0.3,1.5-0.3,2.2v13.1h-7.5V18.9z"/>
	<path fill="#FFFFFF" d="M179.6,16.8c-1.4,0-2.5-0.4-3.3-1.2c-0.8-0.8-1.2-1.8-1.2-3c0-1.2,0.4-2.2,1.2-3c0.8-0.8,1.9-1.3,3.3-1.3
		s2.5,0.4,3.3,1.3c0.8,0.9,1.2,1.9,1.2,3c0,1.2-0.4,2.2-1.2,3C182.1,16.4,181,16.8,179.6,16.8z M175.8,18.9h7.5v25.2h-7.5V18.9z"/>
	<path fill="#FFFFFF" d="M195.6,44.7c-2.8,0-5-0.7-6.6-2.1c-1.6-1.4-2.4-3.3-2.4-5.6c0-2.4,0.8-4.4,2.5-5.7c1.7-1.4,4.2-2.1,7.5-2.1
		c1.4,0,2.6,0.1,3.8,0.4c1.2,0.2,2.2,0.5,3,0.9v-0.9c0-1.6-0.5-2.7-1.5-3.5c-1-0.7-2.2-1.1-3.6-1.1c-1.1,0-2.2,0.2-3.2,0.5
		s-1.8,0.8-2.3,1.5l-4.6-4.4c1-1.2,2.3-2.2,4.1-3c1.8-0.8,3.9-1.2,6.2-1.2c2.1,0,4,0.3,5.5,0.8c1.5,0.5,2.7,1.2,3.7,2.1
		s1.6,2,2.1,3.3c0.4,1.3,0.7,2.7,0.7,4.2v15.4h-7.1v-2.3h-0.1c-0.7,1-1.7,1.7-2.9,2.2C199.2,44.5,197.6,44.7,195.6,44.7z
		 M198.5,39.4c1.5,0,2.7-0.4,3.6-1.2c0.9-0.8,1.4-1.9,1.4-3.3v-0.1c-0.7-0.2-1.5-0.3-2.2-0.4c-0.8-0.1-1.6-0.1-2.6-0.1
		c-2.9,0-4.4,0.9-4.4,2.6c0,0.9,0.4,1.5,1.2,1.9C196.1,39.2,197.2,39.4,198.5,39.4z"/>
	<path fill="#FFFFFF" d="M215.3,8.9h7.5v35.2h-7.5V8.9z"/>
	<path fill="#FFFFFF" d="M237.2,44.7c-1.2,0-2.4-0.1-3.5-0.3c-1.1-0.2-2.2-0.5-3.2-0.9c-1-0.4-1.8-0.8-2.6-1.3
		c-0.8-0.5-1.4-1-1.9-1.6l4.6-4.5c0.3,0.3,0.6,0.5,1.1,0.8c0.5,0.3,1,0.5,1.6,0.7c0.6,0.2,1.2,0.4,1.9,0.5c0.7,0.1,1.3,0.2,2,0.2
		c1.1,0,2-0.1,2.7-0.4c0.7-0.3,1-0.8,1-1.5c0-0.7-0.5-1.2-1.6-1.5c-1.1-0.3-2.5-0.6-4.4-0.9c-1-0.2-2-0.5-2.9-0.8
		c-0.9-0.4-1.8-0.9-2.5-1.5c-0.7-0.6-1.3-1.4-1.7-2.2c-0.4-0.9-0.6-1.9-0.6-3.1c0-1.3,0.3-2.4,0.8-3.4c0.5-1,1.3-1.9,2.3-2.5
		c1-0.7,2.1-1.2,3.5-1.6s2.8-0.5,4.4-0.5c2.5,0,4.6,0.4,6.5,1.1c1.8,0.8,3.2,1.7,4.2,2.7l-4.6,4.6c-0.6-0.6-1.4-1.2-2.4-1.6
		c-1.1-0.4-2.1-0.6-3.2-0.6c-1,0-1.8,0.1-2.5,0.4c-0.7,0.3-1,0.7-1,1.4c0,0.7,0.5,1.2,1.6,1.5c1.1,0.3,2.5,0.6,4.4,0.9
		c1,0.2,2,0.4,2.9,0.8c0.9,0.4,1.8,0.9,2.5,1.5c0.7,0.6,1.3,1.4,1.7,2.2c0.4,0.9,0.6,1.9,0.6,3.1c0,1.3-0.3,2.5-0.8,3.5
		c-0.6,1-1.4,1.9-2.4,2.6s-2.2,1.3-3.6,1.6C240.3,44.5,238.8,44.7,237.2,44.7z"/>
	<path fill="#FFFFFF" d="M89.8,97.1c-1.9,0-3.6-0.4-4.9-1.1c-1.3-0.7-2.3-1.6-3-2.7h-0.1v3.2h-7.1V61.3h7.6v12.8h0.1
		c0.6-0.8,1.5-1.6,2.7-2.3s2.8-1.1,4.8-1.1c1.8,0,3.4,0.3,4.9,1c1.5,0.6,2.8,1.5,3.9,2.7c1.1,1.2,1.9,2.5,2.5,4.1
		c0.6,1.6,0.9,3.3,0.9,5.2c0,1.5-0.2,3.1-0.7,4.7c-0.4,1.6-1.1,3-2.1,4.3c-1,1.3-2.2,2.4-3.8,3.2C93.9,96.7,92,97.1,89.8,97.1z
		 M88.2,90.1c0.9,0,1.7-0.2,2.5-0.5c0.7-0.3,1.4-0.8,1.9-1.3c0.5-0.6,0.9-1.2,1.2-2c0.3-0.7,0.4-1.5,0.4-2.4c0-0.8-0.1-1.6-0.4-2.3
		c-0.3-0.7-0.7-1.4-1.2-2s-1.1-1-1.9-1.4s-1.6-0.5-2.6-0.5c-1,0-1.8,0.2-2.6,0.5c-0.7,0.3-1.4,0.8-1.9,1.4s-0.9,1.2-1.2,2
		c-0.3,0.7-0.4,1.5-0.4,2.3c0,0.9,0.1,1.7,0.4,2.4c0.3,0.7,0.7,1.4,1.2,2c0.5,0.6,1.2,1,1.9,1.3C86.5,89.9,87.3,90.1,88.2,90.1z"/>
	<path fill="#FFFFFF" d="M112.9,97.1c-2.8,0-5-0.7-6.6-2.1c-1.6-1.4-2.4-3.3-2.4-5.6c0-2.4,0.8-4.4,2.5-5.7c1.7-1.4,4.2-2.1,7.5-2.1
		c1.4,0,2.6,0.1,3.8,0.4s2.2,0.5,3,0.9v-0.9c0-1.6-0.5-2.7-1.5-3.5c-1-0.7-2.2-1.1-3.6-1.1c-1.1,0-2.2,0.2-3.2,0.5
		c-1,0.4-1.8,0.8-2.3,1.5l-4.6-4.4c1-1.2,2.3-2.2,4.1-3c1.8-0.8,3.9-1.2,6.2-1.2c2.1,0,4,0.3,5.5,0.8s2.7,1.2,3.7,2.1s1.6,2,2.1,3.3
		c0.4,1.3,0.7,2.7,0.7,4.2v15.4h-7.1v-2.3h-0.1c-0.7,1-1.7,1.7-2.9,2.2C116.4,96.9,114.8,97.1,112.9,97.1z M115.7,91.8
		c1.5,0,2.7-0.4,3.6-1.2s1.4-1.9,1.4-3.3v-0.1c-0.7-0.2-1.5-0.3-2.2-0.4c-0.8-0.1-1.6-0.1-2.6-0.1c-2.9,0-4.4,0.9-4.4,2.6
		c0,0.8,0.4,1.5,1.2,1.9C113.3,91.6,114.4,91.8,115.7,91.8z"/>
	<path fill="#FFFFFF" d="M147.6,97.1c-1.9,0-3.6-0.4-4.9-1.1c-1.3-0.7-2.3-1.6-3-2.7h-0.1v3.2h-7.1V61.3h7.6v12.8h0.1
		c0.6-0.8,1.5-1.6,2.7-2.3s2.8-1.1,4.8-1.1c1.8,0,3.4,0.3,4.9,1c1.5,0.6,2.8,1.5,3.9,2.7c1.1,1.2,1.9,2.5,2.5,4.1
		c0.6,1.6,0.9,3.3,0.9,5.2c0,1.5-0.2,3.1-0.7,4.7c-0.4,1.6-1.1,3-2.1,4.3c-1,1.3-2.2,2.4-3.8,3.2C151.7,96.7,149.8,97.1,147.6,97.1z
		 M146.1,90.1c0.9,0,1.7-0.2,2.5-0.5c0.7-0.3,1.4-0.8,1.9-1.3c0.5-0.6,0.9-1.2,1.2-2c0.3-0.7,0.4-1.5,0.4-2.4c0-0.8-0.1-1.6-0.4-2.3
		c-0.3-0.7-0.7-1.4-1.2-2s-1.1-1-1.9-1.4s-1.6-0.5-2.6-0.5c-1,0-1.8,0.2-2.6,0.5c-0.7,0.3-1.4,0.8-1.9,1.4s-0.9,1.2-1.2,2
		c-0.3,0.7-0.4,1.5-0.4,2.3c0,0.9,0.1,1.7,0.4,2.4c0.3,0.7,0.7,1.4,1.2,2c0.5,0.6,1.2,1,1.9,1.3C144.3,89.9,145.2,90.1,146.1,90.1z"
		/>
	<path fill="#FFFFFF" d="M166.6,105.4c-1.9,0-3.6-0.4-4.9-1.1c-1.4-0.7-2.4-1.5-3.1-2.4l4.7-4.7c0.3,0.4,0.7,0.7,1.2,0.9
		c0.5,0.3,1,0.4,1.7,0.4c0.7,0,1.4-0.1,1.9-0.4c0.5-0.3,0.9-0.8,1.1-1.6l0.1-0.2l-8.6-25.1h8.1l4.6,15.7h0.1l4.6-15.7h7.9l-9.1,26.8
		c-0.8,2.3-2,4.2-3.7,5.4C171.4,104.8,169.3,105.4,166.6,105.4z"/>
	<path fill="#FFFFFF" d="M203.9,97.1c-1.9,0-3.6-0.4-4.9-1.1c-1.3-0.7-2.3-1.6-3-2.7h-0.1v3.2h-7.1V61.3h7.6v12.8h0.1
		c0.6-0.8,1.5-1.6,2.7-2.3s2.8-1.1,4.8-1.1c1.8,0,3.4,0.3,4.9,1c1.5,0.6,2.8,1.5,3.9,2.7c1.1,1.2,1.9,2.5,2.5,4.1
		c0.6,1.6,0.9,3.3,0.9,5.2c0,1.5-0.2,3.1-0.7,4.7c-0.4,1.6-1.1,3-2.1,4.3c-1,1.3-2.2,2.4-3.8,3.2C208,96.7,206.1,97.1,203.9,97.1z
		 M202.4,90.1c0.9,0,1.7-0.2,2.5-0.5c0.7-0.3,1.4-0.8,1.9-1.3c0.5-0.6,0.9-1.2,1.2-2c0.3-0.7,0.4-1.5,0.4-2.4c0-0.8-0.1-1.6-0.4-2.3
		c-0.3-0.7-0.7-1.4-1.2-2s-1.1-1-1.9-1.4s-1.6-0.5-2.6-0.5c-1,0-1.8,0.2-2.6,0.5c-0.7,0.3-1.4,0.8-1.9,1.4s-0.9,1.2-1.2,2
		c-0.3,0.7-0.4,1.5-0.4,2.3c0,0.9,0.1,1.7,0.4,2.4c0.3,0.7,0.7,1.4,1.2,2c0.5,0.6,1.2,1,1.9,1.3C200.6,89.9,201.5,90.1,202.4,90.1z"
		/>
	<path fill="#FFFFFF" d="M232.1,97.1c-2.3,0-4.3-0.4-6-1.2s-3.1-1.8-4.2-3.1c-1.1-1.3-2-2.7-2.5-4.3c-0.5-1.6-0.8-3.1-0.8-4.7
		c0-1.5,0.3-3.1,0.8-4.7c0.5-1.6,1.4-3,2.5-4.3c1.1-1.3,2.5-2.3,4.2-3.1s3.7-1.2,6-1.2c2.3,0,4.3,0.4,6,1.2s3.1,1.8,4.2,3.1
		c1.1,1.3,2,2.7,2.5,4.3c0.5,1.6,0.8,3.1,0.8,4.7c0,1.5-0.3,3.1-0.8,4.7c-0.5,1.6-1.4,3-2.5,4.3c-1.1,1.3-2.5,2.3-4.2,3.1
		S234.4,97.1,232.1,97.1z M232.1,90c0.8,0,1.5-0.2,2.2-0.5s1.3-0.7,1.9-1.2s0.9-1.2,1.2-1.9c0.3-0.7,0.5-1.6,0.5-2.4
		c0-0.9-0.2-1.7-0.5-2.4s-0.7-1.4-1.2-1.9s-1.1-1-1.9-1.3c-0.7-0.3-1.5-0.5-2.2-0.5c-0.8,0-1.5,0.2-2.2,0.5
		c-0.7,0.3-1.3,0.7-1.9,1.3s-0.9,1.2-1.2,1.9c-0.3,0.7-0.5,1.6-0.5,2.4c0,0.9,0.2,1.7,0.5,2.4c0.3,0.7,0.7,1.4,1.2,1.9
		s1.1,0.9,1.9,1.2C230.6,89.8,231.3,90,232.1,90z"/>
	<path fill="#FFFFFF" d="M261.6,97.1c-2.3,0-4.3-0.4-6-1.2c-1.7-0.8-3.1-1.8-4.2-3.1c-1.1-1.3-2-2.7-2.5-4.3
		c-0.5-1.6-0.8-3.1-0.8-4.7c0-1.5,0.3-3.1,0.8-4.7c0.5-1.6,1.4-3,2.5-4.3c1.1-1.3,2.5-2.3,4.2-3.1c1.7-0.8,3.7-1.2,6-1.2
		c2.3,0,4.3,0.4,6,1.2c1.7,0.8,3.1,1.8,4.2,3.1c1.1,1.3,2,2.7,2.5,4.3c0.5,1.6,0.8,3.1,0.8,4.7c0,1.5-0.3,3.1-0.8,4.7
		c-0.5,1.6-1.4,3-2.5,4.3s-2.5,2.3-4.2,3.1C265.8,96.7,263.8,97.1,261.6,97.1z M261.6,90c0.8,0,1.5-0.2,2.2-0.5
		c0.7-0.3,1.3-0.7,1.9-1.2c0.5-0.5,0.9-1.2,1.2-1.9c0.3-0.7,0.5-1.6,0.5-2.4c0-0.9-0.2-1.7-0.5-2.4c-0.3-0.7-0.7-1.4-1.2-1.9
		c-0.5-0.5-1.1-1-1.9-1.3c-0.7-0.3-1.5-0.5-2.2-0.5c-0.8,0-1.5,0.2-2.2,0.5c-0.7,0.3-1.3,0.7-1.9,1.3c-0.5,0.5-0.9,1.2-1.2,1.9
		s-0.5,1.6-0.5,2.4c0,0.9,0.2,1.7,0.5,2.4c0.3,0.7,0.7,1.4,1.2,1.9c0.5,0.5,1.1,0.9,1.9,1.2C260,89.8,260.8,90,261.6,90z"/>
	<path fill="#FFFFFF" d="M279,71.3h7.1v3h0.1c0.7-1.1,1.7-2,2.9-2.6c1.2-0.6,2.7-1,4.5-1c2,0,3.7,0.3,4.9,1c1.3,0.7,2.3,1.6,3.1,2.8
		c0.9-1.2,2.1-2.1,3.6-2.8c1.5-0.7,3.5-1,5.8-1c1.8,0,3.4,0.3,4.7,0.9c1.3,0.6,2.4,1.4,3.2,2.4c0.8,1,1.4,2.3,1.8,3.7
		c0.4,1.4,0.6,3,0.6,4.6v14.2h-7.5V83.4c0-0.7-0.1-1.5-0.2-2.2c-0.2-0.7-0.4-1.3-0.8-1.9c-0.4-0.5-0.9-1-1.5-1.3
		c-0.6-0.3-1.4-0.5-2.3-0.5c-0.9,0-1.6,0.2-2.3,0.5c-0.6,0.3-1.2,0.7-1.6,1.3s-0.8,1.1-1,1.9c-0.2,0.7-0.3,1.5-0.3,2.2v13.1h-7.5
		V83.4c0-0.7-0.1-1.5-0.2-2.2c-0.2-0.7-0.4-1.3-0.8-1.9c-0.4-0.5-0.9-1-1.5-1.3c-0.6-0.3-1.4-0.5-2.3-0.5c-0.9,0-1.6,0.2-2.3,0.5
		c-0.6,0.3-1.2,0.7-1.6,1.3s-0.8,1.1-1,1.9c-0.2,0.7-0.3,1.5-0.3,2.2v13.1H279V71.3z"/>
	<path fill="#FFFFFF" d="M338.1,97.1c-2.3,0-4.2-0.4-5.9-1.2s-3.1-1.8-4.2-3.1s-1.9-2.7-2.4-4.3c-0.5-1.6-0.8-3.1-0.8-4.7
		c0-1.5,0.2-3.1,0.7-4.7c0.5-1.6,1.3-3,2.3-4.3c1-1.3,2.4-2.3,4-3.1c1.6-0.8,3.6-1.2,5.9-1.2s4.2,0.4,5.8,1.2s2.9,1.8,4,3.1
		c1,1.3,1.8,2.7,2.2,4.3c0.5,1.6,0.7,3.1,0.7,4.7c0,0.4,0,0.8-0.1,1.4s-0.1,0.9-0.2,1.2h-17.7c0.2,0.7,0.5,1.3,0.9,1.8
		c0.4,0.5,0.9,0.9,1.4,1.2c0.5,0.3,1.1,0.6,1.7,0.7c0.6,0.2,1.2,0.2,1.9,0.2c1.1,0,2.2-0.2,3.2-0.5c1-0.4,1.8-0.8,2.3-1.5l4.6,4.4
		c-1,1.2-2.3,2.2-4.1,3C342.5,96.7,340.4,97.1,338.1,97.1z M337.7,77c-1.3,0-2.4,0.3-3.4,1c-1,0.6-1.6,1.7-1.9,3.3H343
		c-0.3-1.5-0.9-2.6-1.9-3.3C340.1,77.3,338.9,77,337.7,77z"/>
	<path fill="#FFFFFF" d="M354.2,71.3h7.1v3.5h0.1c0.7-1.1,1.7-2,3-2.9c1.3-0.8,3-1.2,4.9-1.2c1.3,0,2.6,0.2,3.8,0.6l-2.7,7.4
		c-0.9-0.5-1.8-0.7-2.8-0.7c-0.8,0-1.5,0.1-2.2,0.4c-0.7,0.3-1.3,0.7-1.9,1.2c-0.5,0.5-0.9,1.1-1.2,1.9s-0.5,1.6-0.5,2.5v12.6h-7.5
		V71.3z"/>
	<path fill="#FFFFFF" d="M384.4,97.1c-1.2,0-2.4-0.1-3.5-0.3c-1.1-0.2-2.2-0.5-3.2-0.9s-1.8-0.8-2.6-1.3s-1.4-1-1.9-1.6l4.6-4.5
		c0.3,0.3,0.6,0.5,1.1,0.8c0.5,0.3,1,0.5,1.6,0.7c0.6,0.2,1.2,0.4,1.9,0.5s1.3,0.2,2,0.2c1.1,0,2-0.1,2.7-0.4c0.7-0.3,1-0.8,1-1.5
		c0-0.7-0.5-1.2-1.6-1.5c-1.1-0.3-2.5-0.6-4.4-0.9c-1-0.2-2-0.5-2.9-0.8s-1.8-0.9-2.5-1.5c-0.7-0.6-1.3-1.4-1.7-2.2
		c-0.4-0.9-0.6-1.9-0.6-3.1c0-1.3,0.3-2.4,0.8-3.4c0.5-1,1.3-1.9,2.3-2.5s2.1-1.2,3.5-1.6c1.3-0.4,2.8-0.5,4.4-0.5
		c2.5,0,4.6,0.4,6.5,1.1c1.8,0.8,3.2,1.7,4.2,2.7l-4.6,4.6c-0.6-0.6-1.4-1.2-2.4-1.6c-1.1-0.4-2.1-0.6-3.2-0.6c-1,0-1.8,0.1-2.5,0.4
		c-0.7,0.3-1,0.7-1,1.4c0,0.7,0.5,1.2,1.6,1.5c1.1,0.3,2.5,0.6,4.4,0.9c1,0.2,2,0.4,2.9,0.8c0.9,0.4,1.8,0.9,2.5,1.5
		c0.7,0.6,1.3,1.4,1.7,2.2c0.4,0.9,0.6,1.9,0.6,3.1c0,1.3-0.3,2.5-0.8,3.5c-0.6,1-1.4,1.9-2.4,2.6c-1,0.7-2.2,1.3-3.6,1.6
		C387.6,96.9,386.1,97.1,384.4,97.1z"/>
</g>
<circle cx="57.2" cy="61.3" r="22.2"/>
<g>
	<path fill="#FFFFFF" d="M45.6,54.9h3.8l2.1,7.3h0l2.1-7.3h3.7l-4,11.7h-3.7L45.6,54.9z"/>
	<path fill="#FFFFFF" d="M63,66.9c-0.6,0-1.1,0-1.7-0.1c-0.5-0.1-1-0.2-1.5-0.4c-0.5-0.2-0.9-0.4-1.2-0.6s-0.7-0.5-0.9-0.7l2.1-2.1
		c0.1,0.1,0.3,0.3,0.5,0.4s0.5,0.2,0.7,0.3c0.3,0.1,0.6,0.2,0.9,0.2c0.3,0.1,0.6,0.1,0.9,0.1c0.5,0,0.9-0.1,1.2-0.2
		c0.3-0.1,0.5-0.4,0.5-0.7c0-0.3-0.2-0.6-0.7-0.7c-0.5-0.1-1.2-0.3-2-0.4c-0.5-0.1-0.9-0.2-1.4-0.4c-0.4-0.2-0.8-0.4-1.2-0.7
		c-0.3-0.3-0.6-0.6-0.8-1c-0.2-0.4-0.3-0.9-0.3-1.4c0-0.6,0.1-1.1,0.4-1.6c0.3-0.5,0.6-0.9,1.1-1.2c0.5-0.3,1-0.6,1.6-0.7
		c0.6-0.2,1.3-0.2,2.1-0.2c1.2,0,2.2,0.2,3,0.5c0.8,0.4,1.5,0.8,1.9,1.3l-2.2,2.1c-0.3-0.3-0.6-0.5-1.1-0.7c-0.5-0.2-1-0.3-1.5-0.3
		c-0.5,0-0.9,0.1-1.2,0.2c-0.3,0.1-0.5,0.3-0.5,0.7c0,0.3,0.2,0.6,0.7,0.7c0.5,0.1,1.2,0.3,2,0.4c0.5,0.1,0.9,0.2,1.4,0.4
		c0.4,0.2,0.8,0.4,1.2,0.7c0.3,0.3,0.6,0.6,0.8,1c0.2,0.4,0.3,0.9,0.3,1.4c0,0.6-0.1,1.2-0.4,1.7c-0.3,0.5-0.6,0.9-1.1,1.2
		c-0.5,0.3-1,0.6-1.7,0.8S63.7,66.9,63,66.9z"/>
</g>
</svg>
