<?xml version="1.0" encoding="utf-8"?>
<!-- Generator: Adobe Illustrator 18.0.0, SVG Export Plug-In . SVG Version: 6.00 Build 0)  -->
<!DOCTYPE svg PUBLIC "-//W3C//DTD SVG 1.1//EN" "http://www.w3.org/Graphics/SVG/1.1/DTD/svg11.dtd">
<svg version="1.1" id="Layer_1" xmlns="http://www.w3.org/2000/svg" xmlns:xlink="http://www.w3.org/1999/xlink" x="0px" y="0px"
	 viewBox="0 0 393.2 87.1" enable-background="new 0 0 393.2 87.1" xml:space="preserve">
<g>
	<path fill="#FFFFFF" d="M0,10.6h7.1v3h0.1c0.7-1.1,1.7-2,2.9-2.6c1.2-0.6,2.7-1,4.5-1c2,0,3.7,0.3,4.9,1c1.3,0.7,2.3,1.6,3.1,2.8
		c0.9-1.2,2.1-2.1,3.6-2.8c1.5-0.7,3.5-1,5.8-1c1.8,0,3.4,0.3,4.7,0.9c1.3,0.6,2.4,1.4,3.2,2.4c0.8,1,1.4,2.3,1.8,3.7
		c0.4,1.4,0.6,3,0.6,4.6v14.2H35V22.7c0-0.7-0.1-1.5-0.2-2.2c-0.2-0.7-0.4-1.3-0.8-1.9c-0.4-0.5-0.9-1-1.5-1.3
		c-0.6-0.3-1.4-0.5-2.3-0.5c-0.9,0-1.6,0.2-2.3,0.5c-0.6,0.3-1.2,0.7-1.6,1.3c-0.4,0.5-0.8,1.1-1,1.9S25,21.9,25,22.7v13.1h-7.5
		V22.7c0-0.7-0.1-1.5-0.2-2.2c-0.2-0.7-0.4-1.3-0.8-1.9c-0.4-0.5-0.9-1-1.5-1.3c-0.6-0.3-1.4-0.5-2.3-0.5c-0.9,0-1.6,0.2-2.3,0.5
		c-0.6,0.3-1.2,0.7-1.6,1.3c-0.4,0.5-0.8,1.1-1,1.9s-0.3,1.5-0.3,2.2v13.1H0V10.6z"/>
	<path fill="#FFFFFF" d="M51,8.5c-1.4,0-2.5-0.4-3.3-1.2c-0.8-0.8-1.2-1.8-1.2-3c0-1.2,0.4-2.2,1.2-3C48.5,0.4,49.6,0,51,0
		s2.5,0.4,3.3,1.3c0.8,0.9,1.2,1.9,1.2,3c0,1.2-0.4,2.2-1.2,3C53.5,8.1,52.4,8.5,51,8.5z M47.2,10.6h7.5v25.2h-7.5V10.6z"/>
	<path fill="#FFFFFF" d="M60.1,0.6h7.5v35.2h-7.5V0.6z"/>
	<path fill="#FFFFFF" d="M72.9,0.6h7.5v35.2h-7.5V0.6z"/>
	<path fill="#FFFFFF" d="M97.7,36.4c-2.3,0-4.3-0.4-5.9-1.2c-1.7-0.8-3.1-1.8-4.2-3.1c-1.1-1.3-1.9-2.7-2.4-4.3
		c-0.5-1.6-0.8-3.1-0.8-4.7c0-1.5,0.2-3.1,0.7-4.7c0.5-1.6,1.3-3,2.3-4.3c1-1.3,2.4-2.3,4-3.1C93,10.4,95,10,97.3,10
		c2.3,0,4.2,0.4,5.8,1.2c1.6,0.8,2.9,1.8,4,3.1c1,1.3,1.8,2.7,2.2,4.3c0.5,1.6,0.7,3.1,0.7,4.7c0,0.4,0,0.8-0.1,1.4
		c-0.1,0.5-0.1,0.9-0.2,1.2H92c0.2,0.7,0.5,1.3,0.9,1.8c0.4,0.5,0.9,0.9,1.4,1.2c0.5,0.3,1.1,0.6,1.7,0.7c0.6,0.2,1.2,0.2,1.9,0.2
		c1.1,0,2.2-0.2,3.2-0.5c1-0.4,1.8-0.8,2.3-1.5l4.6,4.4c-1,1.2-2.3,2.2-4.1,3C102.1,36,100,36.4,97.7,36.4z M97.3,16.3
		c-1.3,0-2.4,0.3-3.4,1c-1,0.6-1.6,1.7-1.9,3.3h10.7c-0.3-1.5-0.9-2.6-1.9-3.3C99.7,16.6,98.5,16.3,97.3,16.3z"/>
	<path fill="#FFFFFF" d="M113.7,10.6h7.1v3h0.1c0.7-1.1,1.7-2,2.9-2.6c1.2-0.6,2.7-1,4.5-1c1.8,0,3.4,0.3,4.7,0.9
		c1.3,0.6,2.4,1.4,3.2,2.4c0.8,1,1.4,2.3,1.8,3.7c0.4,1.4,0.6,3,0.6,4.6v14.2h-7.5V22.7c0-0.7-0.1-1.5-0.2-2.2
		c-0.2-0.7-0.4-1.3-0.8-1.9c-0.4-0.5-0.9-1-1.5-1.3c-0.6-0.3-1.4-0.5-2.3-0.5c-0.9,0-1.6,0.2-2.3,0.5c-0.6,0.3-1.2,0.7-1.6,1.3
		c-0.4,0.5-0.8,1.1-1,1.9s-0.3,1.5-0.3,2.2v13.1h-7.5V10.6z"/>
	<path fill="#FFFFFF" d="M143.4,10.6h7.1v3h0.1c0.7-1.1,1.7-2,2.9-2.6c1.2-0.6,2.7-1,4.5-1c1.8,0,3.4,0.3,4.7,0.9
		c1.3,0.6,2.4,1.4,3.2,2.4c0.8,1,1.4,2.3,1.8,3.7c0.4,1.4,0.6,3,0.6,4.6v14.2h-7.5V22.7c0-0.7-0.1-1.5-0.2-2.2
		c-0.2-0.7-0.4-1.3-0.8-1.9c-0.4-0.5-0.9-1-1.5-1.3c-0.6-0.3-1.4-0.5-2.3-0.5c-0.9,0-1.6,0.2-2.3,0.5c-0.6,0.3-1.2,0.7-1.6,1.3
		c-0.4,0.5-0.8,1.1-1,1.9c-0.2,0.7-0.3,1.5-0.3,2.2v13.1h-7.5V10.6z"/>
	<path fill="#FFFFFF" d="M176.9,8.5c-1.4,0-2.5-0.4-3.3-1.2c-0.8-0.8-1.2-1.8-1.2-3c0-1.2,0.4-2.2,1.2-3c0.8-0.8,1.9-1.3,3.3-1.3
		s2.5,0.4,3.3,1.3c0.8,0.9,1.2,1.9,1.2,3c0,1.2-0.4,2.2-1.2,3C179.4,8.1,178.3,8.5,176.9,8.5z M173.1,10.6h7.5v25.2h-7.5V10.6z"/>
	<path fill="#FFFFFF" d="M193,36.4c-2.8,0-5-0.7-6.6-2.1c-1.6-1.4-2.4-3.3-2.4-5.6c0-2.4,0.8-4.4,2.5-5.7s4.2-2.1,7.5-2.1
		c1.4,0,2.6,0.1,3.8,0.4c1.2,0.2,2.2,0.5,3,0.9v-0.9c0-1.6-0.5-2.7-1.5-3.5c-1-0.7-2.2-1.1-3.6-1.1c-1.1,0-2.2,0.2-3.2,0.5
		c-1,0.4-1.8,0.8-2.3,1.5l-4.6-4.4c1-1.2,2.3-2.2,4.1-3c1.8-0.8,3.9-1.2,6.2-1.2c2.1,0,4,0.3,5.5,0.8c1.5,0.5,2.7,1.2,3.7,2.1
		c1,0.9,1.6,2,2.1,3.3c0.4,1.3,0.7,2.7,0.7,4.2v15.4h-7.1v-2.3h-0.1c-0.7,1-1.7,1.7-2.9,2.2C196.5,36.2,194.9,36.4,193,36.4z
		 M195.8,31.1c1.5,0,2.7-0.4,3.6-1.2c0.9-0.8,1.4-1.9,1.4-3.3v-0.1c-0.7-0.2-1.5-0.3-2.2-0.4c-0.8-0.1-1.6-0.1-2.6-0.1
		c-2.9,0-4.4,0.9-4.4,2.6c0,0.9,0.4,1.5,1.2,1.9C193.5,30.9,194.5,31.1,195.8,31.1z"/>
	<path fill="#FFFFFF" d="M212.6,0.6h7.5v35.2h-7.5V0.6z"/>
	<path fill="#FFFFFF" d="M234.5,36.4c-1.2,0-2.4-0.1-3.5-0.3c-1.1-0.2-2.2-0.5-3.2-0.9c-1-0.4-1.8-0.8-2.6-1.3
		c-0.8-0.5-1.4-1-1.9-1.6l4.6-4.5c0.3,0.3,0.6,0.5,1.1,0.8c0.5,0.3,1,0.5,1.6,0.7c0.6,0.2,1.2,0.4,1.9,0.5c0.7,0.1,1.3,0.2,2,0.2
		c1.1,0,2-0.1,2.7-0.4c0.7-0.3,1-0.8,1-1.5c0-0.7-0.5-1.2-1.6-1.5c-1.1-0.3-2.5-0.6-4.4-0.9c-1-0.2-2-0.5-2.9-0.8
		c-0.9-0.4-1.8-0.9-2.5-1.5c-0.7-0.6-1.3-1.4-1.7-2.2c-0.4-0.9-0.6-1.9-0.6-3.1c0-1.3,0.3-2.4,0.8-3.4c0.5-1,1.3-1.9,2.3-2.5
		c1-0.7,2.1-1.2,3.5-1.6s2.8-0.5,4.4-0.5c2.5,0,4.6,0.4,6.5,1.1c1.8,0.8,3.2,1.7,4.2,2.7l-4.6,4.6c-0.6-0.6-1.4-1.2-2.4-1.6
		c-1.1-0.4-2.1-0.6-3.2-0.6c-1,0-1.8,0.1-2.5,0.4c-0.7,0.3-1,0.7-1,1.4c0,0.7,0.5,1.2,1.6,1.5c1.1,0.3,2.5,0.6,4.4,0.9
		c1,0.2,2,0.4,2.9,0.8c0.9,0.4,1.8,0.9,2.5,1.5c0.7,0.6,1.3,1.4,1.7,2.2c0.4,0.9,0.6,1.9,0.6,3.1c0,1.3-0.3,2.5-0.8,3.5
		c-0.6,1-1.4,1.9-2.4,2.6s-2.2,1.3-3.6,1.6C237.7,36.2,236.2,36.4,234.5,36.4z"/>
	<path fill="#FFFFFF" d="M87.1,78.8c-1.9,0-3.6-0.4-4.9-1.1c-1.3-0.7-2.3-1.6-3-2.7h-0.1v3.2H72V43h7.6v12.8h0.1
		c0.6-0.8,1.5-1.6,2.7-2.3c1.2-0.7,2.8-1.1,4.8-1.1c1.8,0,3.4,0.3,4.9,1c1.5,0.6,2.8,1.5,3.9,2.7c1.1,1.2,1.9,2.5,2.5,4.1
		c0.6,1.6,0.9,3.3,0.9,5.2c0,1.5-0.2,3.1-0.7,4.7s-1.1,3-2.1,4.3c-1,1.3-2.2,2.4-3.8,3.2C91.2,78.4,89.3,78.8,87.1,78.8z M85.6,71.8
		c0.9,0,1.7-0.2,2.5-0.5c0.7-0.3,1.4-0.8,1.9-1.3c0.5-0.6,0.9-1.2,1.2-2c0.3-0.7,0.4-1.5,0.4-2.4c0-0.8-0.1-1.6-0.4-2.3
		c-0.3-0.7-0.7-1.4-1.2-2c-0.5-0.6-1.1-1-1.9-1.4s-1.6-0.5-2.6-0.5c-1,0-1.8,0.2-2.6,0.5c-0.7,0.3-1.4,0.8-1.9,1.4
		c-0.5,0.6-0.9,1.2-1.2,2c-0.3,0.7-0.4,1.5-0.4,2.3c0,0.9,0.1,1.6,0.4,2.4c0.3,0.7,0.7,1.4,1.2,2c0.5,0.6,1.2,1,1.9,1.3
		C83.8,71.6,84.7,71.8,85.6,71.8z"/>
	<path fill="#FFFFFF" d="M110.2,78.8c-2.8,0-5-0.7-6.6-2.1c-1.6-1.4-2.4-3.3-2.4-5.6c0-2.4,0.8-4.4,2.5-5.7c1.7-1.4,4.2-2.1,7.5-2.1
		c1.4,0,2.6,0.1,3.8,0.4c1.2,0.2,2.2,0.5,3,0.9v-0.9c0-1.6-0.5-2.7-1.5-3.5c-1-0.7-2.2-1.1-3.6-1.1c-1.1,0-2.2,0.2-3.2,0.5
		s-1.8,0.8-2.3,1.5l-4.6-4.4c1-1.2,2.3-2.2,4.1-3c1.8-0.8,3.9-1.2,6.2-1.2c2.1,0,4,0.3,5.5,0.8c1.5,0.5,2.7,1.2,3.7,2.1
		s1.6,2,2.1,3.3c0.4,1.3,0.7,2.7,0.7,4.2v15.4H118v-2.3h-0.1c-0.7,1-1.7,1.7-2.9,2.2C113.7,78.6,112.1,78.8,110.2,78.8z M113,73.5
		c1.5,0,2.7-0.4,3.6-1.2c0.9-0.8,1.4-1.9,1.4-3.3v-0.1c-0.7-0.2-1.5-0.3-2.2-0.4c-0.8-0.1-1.6-0.1-2.6-0.1c-2.9,0-4.4,0.9-4.4,2.6
		c0,0.9,0.4,1.5,1.2,1.9C110.7,73.3,111.7,73.5,113,73.5z"/>
	<path fill="#FFFFFF" d="M145,78.8c-1.9,0-3.6-0.4-4.9-1.1c-1.3-0.7-2.3-1.6-3-2.7H137v3.2h-7.1V43h7.6v12.8h0.1
		c0.6-0.8,1.5-1.6,2.7-2.3c1.2-0.7,2.8-1.1,4.8-1.1c1.8,0,3.4,0.3,4.9,1c1.5,0.6,2.8,1.5,3.9,2.7c1.1,1.2,1.9,2.5,2.5,4.1
		c0.6,1.6,0.9,3.3,0.9,5.2c0,1.5-0.2,3.1-0.7,4.7s-1.1,3-2.1,4.3c-1,1.3-2.2,2.4-3.8,3.2C149,78.4,147.2,78.8,145,78.8z M143.4,71.8
		c0.9,0,1.7-0.2,2.5-0.5c0.7-0.3,1.4-0.8,1.9-1.3c0.5-0.6,0.9-1.2,1.2-2c0.3-0.7,0.4-1.5,0.4-2.4c0-0.8-0.1-1.6-0.4-2.3
		c-0.3-0.7-0.7-1.4-1.2-2c-0.5-0.6-1.1-1-1.9-1.4s-1.6-0.5-2.6-0.5c-1,0-1.8,0.2-2.6,0.5c-0.7,0.3-1.4,0.8-1.9,1.4
		c-0.5,0.6-0.9,1.2-1.2,2c-0.3,0.7-0.4,1.5-0.4,2.3c0,0.9,0.1,1.6,0.4,2.4c0.3,0.7,0.7,1.4,1.2,2c0.5,0.6,1.2,1,1.9,1.3
		C141.7,71.6,142.5,71.8,143.4,71.8z"/>
	<path fill="#FFFFFF" d="M164,87.1c-1.9,0-3.6-0.4-4.9-1.1c-1.4-0.7-2.4-1.5-3.1-2.4l4.7-4.7c0.3,0.4,0.7,0.7,1.2,0.9
		c0.5,0.3,1,0.4,1.7,0.4c0.7,0,1.4-0.1,1.9-0.4c0.5-0.3,0.9-0.8,1.1-1.6l0.1-0.2L158,53h8.1l4.6,15.7h0.1l4.6-15.7h7.9l-9.1,26.8
		c-0.8,2.3-2,4.2-3.7,5.4C168.8,86.5,166.6,87.1,164,87.1z"/>
	<path fill="#FFFFFF" d="M201.3,78.8c-1.9,0-3.6-0.4-4.9-1.1c-1.3-0.7-2.3-1.6-3-2.7h-0.1v3.2h-7.1V43h7.6v12.8h0.1
		c0.6-0.8,1.5-1.6,2.7-2.3c1.2-0.7,2.8-1.1,4.8-1.1c1.8,0,3.4,0.3,4.9,1c1.5,0.6,2.8,1.5,3.9,2.7c1.1,1.2,1.9,2.5,2.5,4.1
		s0.9,3.3,0.9,5.2c0,1.5-0.2,3.1-0.7,4.7s-1.1,3-2.1,4.3c-1,1.3-2.2,2.4-3.8,3.2C205.3,78.4,203.5,78.8,201.3,78.8z M199.7,71.8
		c0.9,0,1.7-0.2,2.5-0.5c0.7-0.3,1.4-0.8,1.9-1.3s0.9-1.2,1.2-2c0.3-0.7,0.4-1.5,0.4-2.4c0-0.8-0.1-1.6-0.4-2.3
		c-0.3-0.7-0.7-1.4-1.2-2c-0.5-0.6-1.1-1-1.9-1.4s-1.6-0.5-2.6-0.5c-1,0-1.8,0.2-2.6,0.5c-0.7,0.3-1.4,0.8-1.9,1.4
		c-0.5,0.6-0.9,1.2-1.2,2c-0.3,0.7-0.4,1.5-0.4,2.3c0,0.9,0.1,1.6,0.4,2.4c0.3,0.7,0.7,1.4,1.2,2c0.5,0.6,1.2,1,1.9,1.3
		C198,71.6,198.8,71.8,199.7,71.8z"/>
	<path fill="#FFFFFF" d="M229.4,78.8c-2.3,0-4.3-0.4-6-1.2s-3.1-1.8-4.2-3.1c-1.1-1.3-2-2.7-2.5-4.3s-0.8-3.1-0.8-4.7
		c0-1.5,0.3-3.1,0.8-4.7s1.4-3,2.5-4.3c1.1-1.3,2.5-2.3,4.2-3.1c1.7-0.8,3.7-1.2,6-1.2c2.3,0,4.3,0.4,6,1.2c1.7,0.8,3.1,1.8,4.2,3.1
		c1.1,1.3,2,2.7,2.5,4.3c0.5,1.6,0.8,3.1,0.8,4.7c0,1.5-0.3,3.1-0.8,4.7c-0.5,1.6-1.4,3-2.5,4.3c-1.1,1.3-2.5,2.3-4.2,3.1
		S231.7,78.8,229.4,78.8z M229.4,71.7c0.8,0,1.5-0.2,2.2-0.5c0.7-0.3,1.3-0.7,1.9-1.2c0.5-0.5,0.9-1.2,1.2-1.9
		c0.3-0.7,0.5-1.6,0.5-2.4c0-0.9-0.2-1.7-0.5-2.4c-0.3-0.7-0.7-1.4-1.2-1.9c-0.5-0.5-1.1-1-1.9-1.3c-0.7-0.3-1.5-0.5-2.2-0.5
		c-0.8,0-1.5,0.2-2.2,0.5c-0.7,0.3-1.3,0.7-1.9,1.3c-0.5,0.5-0.9,1.2-1.2,1.9c-0.3,0.7-0.5,1.6-0.5,2.4c0,0.9,0.2,1.7,0.5,2.4
		c0.3,0.7,0.7,1.4,1.2,1.9c0.5,0.5,1.1,0.9,1.9,1.2C227.9,71.5,228.7,71.7,229.4,71.7z"/>
	<path fill="#FFFFFF" d="M258.9,78.8c-2.3,0-4.3-0.4-6-1.2c-1.7-0.8-3.1-1.8-4.2-3.1c-1.1-1.3-2-2.7-2.5-4.3
		c-0.5-1.6-0.8-3.1-0.8-4.7c0-1.5,0.3-3.1,0.8-4.7c0.5-1.6,1.4-3,2.5-4.3c1.1-1.3,2.5-2.3,4.2-3.1c1.7-0.8,3.7-1.2,6-1.2
		c2.3,0,4.3,0.4,6,1.2c1.7,0.8,3.1,1.8,4.2,3.1c1.1,1.3,2,2.7,2.5,4.3c0.5,1.6,0.8,3.1,0.8,4.7c0,1.5-0.3,3.1-0.8,4.7
		c-0.5,1.6-1.4,3-2.5,4.3c-1.1,1.3-2.5,2.3-4.2,3.1C263.2,78.4,261.2,78.8,258.9,78.8z M258.9,71.7c0.8,0,1.5-0.2,2.2-0.5
		c0.7-0.3,1.3-0.7,1.9-1.2c0.5-0.5,0.9-1.2,1.2-1.9c0.3-0.7,0.5-1.6,0.5-2.4c0-0.9-0.2-1.7-0.5-2.4c-0.3-0.7-0.7-1.4-1.2-1.9
		c-0.5-0.5-1.1-1-1.9-1.3c-0.7-0.3-1.5-0.5-2.2-0.5c-0.8,0-1.5,0.2-2.2,0.5c-0.7,0.3-1.3,0.7-1.9,1.3c-0.5,0.5-0.9,1.2-1.2,1.9
		c-0.3,0.7-0.5,1.6-0.5,2.4c0,0.9,0.2,1.7,0.5,2.4c0.3,0.7,0.7,1.4,1.2,1.9c0.5,0.5,1.1,0.9,1.9,1.2
		C257.4,71.5,258.1,71.7,258.9,71.7z"/>
	<path fill="#FFFFFF" d="M276.3,53h7.1v3h0.1c0.7-1.1,1.7-2,2.9-2.6c1.2-0.6,2.7-1,4.5-1c2,0,3.7,0.3,4.9,1c1.3,0.7,2.3,1.6,3.1,2.8
		c0.9-1.2,2.1-2.1,3.6-2.8c1.5-0.7,3.5-1,5.8-1c1.8,0,3.4,0.3,4.7,0.9c1.3,0.6,2.4,1.4,3.2,2.4c0.8,1,1.4,2.3,1.8,3.7
		c0.4,1.4,0.6,3,0.6,4.6v14.2h-7.5V65.1c0-0.7-0.1-1.5-0.2-2.2c-0.2-0.7-0.4-1.3-0.8-1.9c-0.4-0.5-0.9-1-1.5-1.3
		c-0.6-0.3-1.4-0.5-2.3-0.5c-0.9,0-1.6,0.2-2.3,0.5c-0.6,0.3-1.2,0.7-1.6,1.3c-0.4,0.5-0.8,1.1-1,1.9c-0.2,0.7-0.3,1.5-0.3,2.2v13.1
		h-7.5V65.1c0-0.7-0.1-1.5-0.2-2.2c-0.2-0.7-0.4-1.3-0.8-1.9c-0.4-0.5-0.9-1-1.5-1.3c-0.6-0.3-1.4-0.5-2.3-0.5
		c-0.9,0-1.6,0.2-2.3,0.5c-0.6,0.3-1.2,0.7-1.6,1.3c-0.4,0.5-0.8,1.1-1,1.9c-0.2,0.7-0.3,1.5-0.3,2.2v13.1h-7.5V53z"/>
	<path fill="#FFFFFF" d="M335.4,78.8c-2.3,0-4.2-0.4-5.9-1.2s-3.1-1.8-4.2-3.1c-1.1-1.3-1.9-2.7-2.4-4.3c-0.5-1.6-0.8-3.1-0.8-4.7
		c0-1.5,0.2-3.1,0.7-4.7c0.5-1.6,1.3-3,2.3-4.3c1-1.3,2.4-2.3,4-3.1c1.6-0.8,3.6-1.2,5.9-1.2s4.2,0.4,5.8,1.2c1.6,0.8,2.9,1.8,4,3.1
		c1,1.3,1.8,2.7,2.2,4.3c0.5,1.6,0.7,3.1,0.7,4.7c0,0.4,0,0.8-0.1,1.4c-0.1,0.5-0.1,0.9-0.2,1.2h-17.7c0.2,0.7,0.5,1.3,0.9,1.8
		c0.4,0.5,0.9,0.9,1.4,1.2c0.5,0.3,1.1,0.6,1.7,0.7c0.6,0.2,1.2,0.2,1.9,0.2c1.1,0,2.2-0.2,3.2-0.5c1-0.4,1.8-0.8,2.3-1.5l4.6,4.4
		c-1,1.2-2.3,2.2-4.1,3C339.8,78.4,337.8,78.8,335.4,78.8z M335,58.7c-1.3,0-2.4,0.3-3.4,1c-1,0.6-1.6,1.7-1.9,3.3h10.7
		c-0.3-1.5-0.9-2.6-1.9-3.3C337.4,59,336.3,58.7,335,58.7z"/>
	<path fill="#FFFFFF" d="M351.5,53h7.1v3.5h0.1c0.7-1.1,1.7-2,3-2.9c1.3-0.8,3-1.2,4.9-1.2c1.3,0,2.6,0.2,3.8,0.6l-2.7,7.4
		c-0.9-0.5-1.8-0.7-2.8-0.7c-0.8,0-1.5,0.1-2.2,0.4c-0.7,0.3-1.3,0.7-1.9,1.2c-0.5,0.5-0.9,1.1-1.2,1.9c-0.3,0.7-0.5,1.6-0.5,2.5
		v12.6h-7.5V53z"/>
	<path fill="#FFFFFF" d="M381.8,78.8c-1.2,0-2.4-0.1-3.5-0.3c-1.1-0.2-2.2-0.5-3.2-0.9c-1-0.4-1.8-0.8-2.6-1.3
		c-0.8-0.5-1.4-1-1.9-1.6l4.6-4.5c0.3,0.3,0.6,0.5,1.1,0.8c0.5,0.3,1,0.5,1.6,0.7c0.6,0.2,1.2,0.4,1.9,0.5c0.7,0.1,1.3,0.2,2,0.2
		c1.1,0,2-0.1,2.7-0.4c0.7-0.3,1-0.8,1-1.5c0-0.7-0.5-1.2-1.6-1.5c-1.1-0.3-2.5-0.6-4.4-0.9c-1-0.2-2-0.5-2.9-0.8
		c-0.9-0.4-1.8-0.9-2.5-1.5c-0.7-0.6-1.3-1.4-1.7-2.2c-0.4-0.9-0.6-1.9-0.6-3.1c0-1.3,0.3-2.4,0.8-3.4c0.5-1,1.3-1.9,2.3-2.5
		c1-0.7,2.1-1.2,3.5-1.6c1.3-0.4,2.8-0.5,4.4-0.5c2.5,0,4.6,0.4,6.5,1.1c1.8,0.8,3.2,1.7,4.2,2.7l-4.6,4.6c-0.6-0.6-1.4-1.2-2.4-1.6
		c-1.1-0.4-2.1-0.6-3.2-0.6c-1,0-1.8,0.1-2.5,0.4c-0.7,0.3-1,0.7-1,1.4c0,0.7,0.5,1.2,1.6,1.5c1.1,0.3,2.5,0.6,4.4,0.9
		c1,0.2,2,0.4,2.9,0.8c0.9,0.4,1.8,0.9,2.5,1.5c0.7,0.6,1.3,1.4,1.7,2.2c0.4,0.9,0.6,1.9,0.6,3.1c0,1.3-0.3,2.5-0.8,3.5
		c-0.6,1-1.4,1.9-2.4,2.6c-1,0.7-2.2,1.3-3.6,1.6C384.9,78.6,383.4,78.8,381.8,78.8z"/>
</g>
<circle cx="54.5" cy="53" r="22.2"/>
<g>
	<path fill="#FFFFFF" d="M43,46.6h3.8l2.1,7.3h0l2.1-7.3h3.7l-4,11.7H47L43,46.6z"/>
	<path fill="#FFFFFF" d="M60.3,58.7c-0.6,0-1.1,0-1.7-0.1c-0.5-0.1-1-0.2-1.5-0.4c-0.5-0.2-0.9-0.4-1.2-0.6s-0.7-0.5-0.9-0.7
		l2.1-2.1c0.1,0.1,0.3,0.3,0.5,0.4c0.2,0.1,0.5,0.2,0.7,0.3c0.3,0.1,0.6,0.2,0.9,0.2c0.3,0.1,0.6,0.1,0.9,0.1c0.5,0,0.9-0.1,1.2-0.2
		c0.3-0.1,0.5-0.4,0.5-0.7c0-0.3-0.2-0.6-0.7-0.7c-0.5-0.1-1.2-0.3-2-0.4c-0.5-0.1-0.9-0.2-1.4-0.4c-0.4-0.2-0.8-0.4-1.2-0.7
		c-0.3-0.3-0.6-0.6-0.8-1s-0.3-0.9-0.3-1.4c0-0.6,0.1-1.1,0.4-1.6c0.3-0.5,0.6-0.9,1.1-1.2c0.5-0.3,1-0.6,1.6-0.7
		c0.6-0.2,1.3-0.2,2.1-0.2c1.2,0,2.2,0.2,3,0.5c0.8,0.4,1.5,0.8,1.9,1.3l-2.2,2.1c-0.3-0.3-0.6-0.5-1.1-0.7c-0.5-0.2-1-0.3-1.5-0.3
		c-0.5,0-0.9,0.1-1.2,0.2c-0.3,0.1-0.5,0.3-0.5,0.7c0,0.3,0.2,0.6,0.7,0.7c0.5,0.1,1.2,0.3,2,0.4c0.5,0.1,0.9,0.2,1.4,0.4
		s0.8,0.4,1.2,0.7c0.3,0.3,0.6,0.6,0.8,1c0.2,0.4,0.3,0.9,0.3,1.4c0,0.6-0.1,1.2-0.4,1.7c-0.3,0.5-0.6,0.9-1.1,1.2
		c-0.5,0.3-1,0.6-1.7,0.8C61.8,58.6,61.1,58.7,60.3,58.7z"/>
</g>
</svg>
