<?xml version="1.0" encoding="utf-8"?>
<!-- Generator: Adobe Illustrator 18.0.0, SVG Export Plug-In . SVG Version: 6.00 Build 0)  -->
<!DOCTYPE svg PUBLIC "-//W3C//DTD SVG 1.1//EN" "http://www.w3.org/Graphics/SVG/1.1/DTD/svg11.dtd">
<svg version="1.1" id="Layer_1" xmlns="http://www.w3.org/2000/svg" xmlns:xlink="http://www.w3.org/1999/xlink" x="0px" y="0px"
	 viewBox="0 0 1377.9 209.5" enable-background="new 0 0 1377.9 209.5" xml:space="preserve">
<g opacity="0.1">
	<path fill="#FFFFFF" d="M0,58.5h41.5v20.4h0.3c4-6.3,9.8-11.9,17.6-16.7s17.3-7.3,28.6-7.3c7.8,0,15.1,1.1,22.1,3.3l-15.8,43.6
		c-5-2.8-10.3-4.2-16.1-4.2c-4.6,0-9,0.8-13.1,2.4c-4.2,1.6-7.8,3.9-10.9,6.9c-3.1,3-5.5,6.6-7.3,10.9c-1.8,4.3-2.7,9.1-2.7,14.5
		v73.6H0V58.5z"/>
	<path fill="#FFFFFF" d="M188,209.5c-13.3,0-24.9-2.3-34.6-7c-9.7-4.7-17.9-10.7-24.3-18.1c-6.5-7.4-11.2-15.7-14.3-24.9
		c-3.1-9.2-4.6-18.3-4.6-27.3s1.4-18.1,4.3-27.3c2.9-9.2,7.4-17.6,13.4-24.9c6.1-7.4,13.9-13.4,23.4-18.1c9.5-4.7,21-7,34.3-7
		c13.3,0,24.7,2.3,34.2,7c9.4,4.7,17.2,10.7,23.1,18.1c6,7.4,10.3,15.7,13.1,24.9c2.8,9.2,4.2,18.4,4.2,27.3c0,2.2-0.2,4.8-0.6,7.9
		c-0.4,3.1-0.8,5.5-1.2,7.3H154.9c1.2,4,2.9,7.5,5.2,10.4c2.3,3,5,5.4,8.2,7.3c3.2,1.9,6.6,3.3,10.1,4.2s7.3,1.3,11,1.3
		c6.6,0,12.8-1,18.6-3.1c5.9-2.1,10.4-4.9,13.6-8.5l26.9,26c-5.6,7-13.6,12.8-24.2,17.5C213.8,207.1,201.7,209.5,188,209.5z
		 M185.6,91.9c-7.6,0-14.2,1.9-20,5.7c-5.8,3.8-9.5,10.1-11.3,19.1h62.4c-1.8-9-5.5-15.3-11.2-19.1
		C199.8,93.8,193.1,91.9,185.6,91.9z"/>
	<path fill="#FFFFFF" d="M334.8,209.5c-7.2,0-14.1-0.6-20.7-1.8c-6.7-1.2-12.8-2.9-18.5-5.1c-5.7-2.2-10.7-4.7-15.2-7.5
		c-4.5-2.8-8.2-5.9-11.2-9.2l26.9-26.6c1.6,1.6,3.8,3.2,6.6,4.8c2.8,1.6,5.9,3,9.2,4.2c3.4,1.2,7,2.2,10.9,3
		c3.9,0.8,7.7,1.2,11.5,1.2c6.4,0,11.6-0.8,15.7-2.5c4.1-1.7,6.1-4.5,6.1-8.5c0-4.2-3.1-7.1-9.2-8.8c-6.2-1.7-14.7-3.5-25.7-5.5
		c-6-1-11.7-2.6-17.2-4.9c-5.5-2.3-10.3-5.2-14.5-8.8c-4.2-3.6-7.5-7.9-10-13c-2.5-5.1-3.7-11.1-3.7-18.1c0-7.6,1.6-14.3,4.8-20.1
		c3.2-5.9,7.6-10.8,13.3-14.9c5.7-4.1,12.4-7.2,20.3-9.2c7.9-2.1,16.5-3.1,25.8-3.1c14.5,0,27.1,2.2,37.7,6.7
		c10.6,4.5,18.7,9.8,24.3,16l-27.2,26.9c-3.4-3.8-8.2-6.9-14.3-9.4c-6.2-2.5-12.4-3.7-18.8-3.7c-5.8,0-10.7,0.8-14.8,2.4
		c-4.1,1.6-6.1,4.4-6.1,8.4c0,4.2,3.1,7.1,9.2,8.7c6.2,1.6,14.7,3.4,25.7,5.4c6,1,11.7,2.6,17.2,4.8c5.5,2.2,10.3,5.1,14.5,8.7
		c4.2,3.6,7.5,8,10,13.1c2.5,5.2,3.7,11.1,3.7,17.9c0,7.8-1.6,14.7-4.9,20.7c-3.3,6.1-7.9,11.2-13.9,15.4c-6,4.2-13,7.4-21,9.5
		S344.3,209.5,334.8,209.5z"/>
	<path fill="#FFFFFF" d="M480.7,209.5c-10.7,0-19.9-1.6-27.5-4.9c-7.6-3.3-13.7-7.9-18.5-13.9s-8.3-13.1-10.4-21.3
		c-2.2-8.3-3.3-17.4-3.3-27.3V58.5h44.2v78c0,4.4,0.4,8.5,1.2,12.5c0.8,4,2.2,7.5,4.3,10.6c2.1,3.1,4.8,5.5,8.2,7.3
		c3.4,1.8,7.8,2.7,13.1,2.7c10.1,0,17.5-3.3,22.1-9.8c4.6-6.5,6.9-14.5,6.9-23.8V58.5h44.2v147.4h-41.5v-17.5H523
		c-4.2,6.4-9.7,11.5-16.4,15.3C499.9,207.6,491.2,209.5,480.7,209.5z"/>
	<path fill="#FFFFFF" d="M596.1,0h44.2v205.9h-44.2V0z"/>
	<path fill="#FFFFFF" d="M731.3,209.2c-36.8,0-55.2-20.4-55.2-61.2V95.5h-17.3v-37h17.3v-40h44.2v40h50.1v37h-50.1V148
		c0,7.6,1.9,13.1,5.7,16.6c3.8,3.5,8.4,5.2,13.7,5.2c5,0,9.1-0.9,12.4-2.7c3.3-1.8,6-4,8.2-6.6l13.7,32.8c-3.2,4-8.6,7.6-16.1,10.9
		C750.3,207.5,741.5,209.2,731.3,209.2z"/>
	<path fill="#FFFFFF" d="M832.8,209.5c-16.5,0-29.4-4.1-38.8-12.4c-9.4-8.3-14-19.2-14-33c0-14.3,4.9-25.5,14.8-33.6
		c9.8-8.1,24.4-12.1,43.7-12.1c8,0,15.4,0.7,22.4,2.1c7,1.4,12.7,3.1,17.3,5.1v-5.1c0-9.1-2.9-15.9-8.7-20.3
		c-5.8-4.4-12.8-6.6-21.2-6.6c-6.6,0-12.8,1-18.6,3.1c-5.9,2.1-10.4,4.9-13.6,8.5l-26.9-26c5.6-7,13.6-12.8,24.2-17.5
		c10.5-4.7,22.7-7,36.4-7c12.5,0,23.2,1.5,32.1,4.5c8.8,3,16.1,7.2,21.6,12.5c5.6,5.4,9.6,11.8,12.2,19.4c2.6,7.6,3.9,15.8,3.9,24.8
		v89.8h-41.5v-13.7h-0.6c-4.2,5.8-9.8,10.1-17,13C853.3,208,844.1,209.5,832.8,209.5z M849.3,178.4c8.6,0,15.5-2.3,20.8-7
		c5.3-4.7,8-11.2,8-19.5v-0.3c-4.2-1-8.5-1.7-12.9-2.2c-4.4-0.5-9.5-0.7-15.3-0.7c-17.2,0-25.8,5.1-25.8,15.2c0,5,2.3,8.7,6.9,11
		C835.6,177.2,841.7,178.4,849.3,178.4z"/>
	<path fill="#FFFFFF" d="M1007.6,209.2c-36.8,0-55.2-20.4-55.2-61.2V95.5h-17.3v-37h17.3v-40h44.2v40h50.1v37h-50.1V148
		c0,7.6,1.9,13.1,5.7,16.6c3.8,3.5,8.4,5.2,13.7,5.2c5,0,9.1-0.9,12.4-2.7c3.3-1.8,6-4,8.2-6.6l13.7,32.8c-3.2,4-8.6,7.6-16.1,10.9
		C1026.6,207.5,1017.7,209.2,1007.6,209.2z"/>
	<path fill="#FFFFFF" d="M1137.7,209.5c-13.3,0-24.9-2.3-34.6-7c-9.7-4.7-17.9-10.7-24.3-18.1c-6.5-7.4-11.2-15.7-14.3-24.9
		c-3.1-9.2-4.6-18.3-4.6-27.3s1.4-18.1,4.3-27.3c2.9-9.2,7.4-17.6,13.4-24.9c6.1-7.4,13.9-13.4,23.4-18.1c9.5-4.7,21-7,34.3-7
		c13.3,0,24.7,2.3,34.2,7c9.4,4.7,17.2,10.7,23.1,18.1c6,7.4,10.3,15.7,13.1,24.9c2.8,9.2,4.2,18.4,4.2,27.3c0,2.2-0.2,4.8-0.6,7.9
		c-0.4,3.1-0.8,5.5-1.2,7.3h-103.5c1.2,4,2.9,7.5,5.2,10.4c2.3,3,5,5.4,8.2,7.3c3.2,1.9,6.6,3.3,10.1,4.2c3.6,0.9,7.3,1.3,11,1.3
		c6.6,0,12.8-1,18.6-3.1c5.9-2.1,10.4-4.9,13.6-8.5l26.9,26c-5.6,7-13.6,12.8-24.2,17.5C1163.5,207.1,1151.4,209.5,1137.7,209.5z
		 M1135.3,91.9c-7.6,0-14.2,1.9-20,5.7c-5.8,3.8-9.5,10.1-11.3,19.1h62.4c-1.8-9-5.5-15.3-11.2-19.1
		C1149.5,93.8,1142.9,91.9,1135.3,91.9z"/>
	<path fill="#FFFFFF" d="M1231.4,58.5h41.5v17.3h0.6c4.2-6.4,9.8-11.4,17-15.2c7.2-3.8,16-5.7,26.6-5.7c10.7,0,20,1.7,27.7,5.1
		c7.8,3.4,14.1,8.1,18.9,14.2c4.9,6.1,8.5,13.3,10.7,21.6c2.3,8.4,3.4,17.4,3.4,27.2v82.9h-44.2v-76.7c0-4.4-0.4-8.7-1.3-12.8
		c-0.9-4.2-2.4-7.9-4.6-11c-2.2-3.2-5.1-5.7-8.7-7.6c-3.6-1.9-8.1-2.8-13.4-2.8c-5.2,0-9.6,0.9-13.3,2.8c-3.7,1.9-6.8,4.4-9.4,7.5
		c-2.6,3.1-4.5,6.7-5.7,10.9c-1.2,4.2-1.8,8.6-1.8,13.1v76.7h-44.2V58.5z"/>
</g>
</svg>
