<?xml version="1.0" encoding="utf-8"?>
<!-- Generator: Adobe Illustrator 18.0.0, SVG Export Plug-In . SVG Version: 6.00 Build 0)  -->
<!DOCTYPE svg PUBLIC "-//W3C//DTD SVG 1.1//EN" "http://www.w3.org/Graphics/SVG/1.1/DTD/svg11.dtd">
<svg version="1.1" id="Layer_1" xmlns="http://www.w3.org/2000/svg" xmlns:xlink="http://www.w3.org/1999/xlink" x="0px" y="0px"
	 viewBox="0 0 381.3 78.8" enable-background="new 0 0 381.3 78.8" xml:space="preserve">
<g>
	<path fill="#FFFFFF" d="M11.2,36.4c-1.2,0-2.4-0.1-3.5-0.3c-1.1-0.2-2.2-0.5-3.2-0.9c-1-0.4-1.8-0.8-2.6-1.3
		c-0.8-0.5-1.4-1-1.9-1.6l4.6-4.5c0.3,0.3,0.6,0.5,1.1,0.8c0.5,0.3,1,0.5,1.6,0.7c0.6,0.2,1.2,0.4,1.9,0.5c0.7,0.1,1.3,0.2,2,0.2
		c1.1,0,2-0.1,2.7-0.4c0.7-0.3,1-0.8,1-1.5c0-0.7-0.5-1.2-1.6-1.5c-1.1-0.3-2.5-0.6-4.4-0.9c-1-0.2-2-0.5-2.9-0.8
		C5,24.5,4.2,24,3.5,23.4c-0.7-0.6-1.3-1.4-1.7-2.2c-0.4-0.9-0.6-1.9-0.6-3.1c0-1.3,0.3-2.4,0.8-3.4c0.5-1,1.3-1.9,2.3-2.5
		c1-0.7,2.1-1.2,3.5-1.6C9,10.2,10.5,10,12.1,10c2.5,0,4.6,0.4,6.5,1.1c1.8,0.8,3.2,1.7,4.2,2.7l-4.6,4.6c-0.6-0.6-1.4-1.2-2.4-1.6
		c-1.1-0.4-2.1-0.6-3.2-0.6c-1,0-1.8,0.1-2.5,0.4c-0.7,0.3-1,0.7-1,1.4c0,0.7,0.5,1.2,1.6,1.5c1.1,0.3,2.5,0.6,4.4,0.9
		c1,0.2,2,0.4,2.9,0.8c0.9,0.4,1.8,0.9,2.5,1.5c0.7,0.6,1.3,1.4,1.7,2.2c0.4,0.9,0.6,1.9,0.6,3.1c0,1.3-0.3,2.5-0.8,3.5
		c-0.6,1-1.4,1.9-2.4,2.6c-1,0.7-2.2,1.3-3.6,1.6C14.4,36.2,12.9,36.4,11.2,36.4z"/>
	<path fill="#FFFFFF" d="M33.6,36.4c-2.8,0-5-0.7-6.6-2.1c-1.6-1.4-2.4-3.3-2.4-5.6c0-2.4,0.8-4.4,2.5-5.7c1.7-1.4,4.2-2.1,7.5-2.1
		c1.4,0,2.6,0.1,3.8,0.4c1.2,0.2,2.2,0.5,3,0.9v-0.9c0-1.6-0.5-2.7-1.5-3.5c-1-0.7-2.2-1.1-3.6-1.1c-1.1,0-2.2,0.2-3.2,0.5
		s-1.8,0.8-2.3,1.5l-4.6-4.4c1-1.2,2.3-2.2,4.1-3c1.8-0.8,3.9-1.2,6.2-1.2c2.1,0,4,0.3,5.5,0.8c1.5,0.5,2.7,1.2,3.7,2.1
		s1.6,2,2.1,3.3c0.4,1.3,0.7,2.7,0.7,4.2v15.4h-7.1v-2.3h-0.1c-0.7,1-1.7,1.7-2.9,2.2C37.1,36.2,35.5,36.4,33.6,36.4z M36.4,31.1
		c1.5,0,2.7-0.4,3.6-1.2c0.9-0.8,1.4-1.9,1.4-3.3v-0.1c-0.7-0.2-1.5-0.3-2.2-0.4c-0.8-0.1-1.6-0.1-2.6-0.1c-2.9,0-4.4,0.9-4.4,2.6
		c0,0.9,0.4,1.5,1.2,1.9C34,30.9,35.1,31.1,36.4,31.1z"/>
	<path fill="#FFFFFF" d="M53.2,0.6h7.5v35.2h-7.5V0.6z"/>
	<path fill="#FFFFFF" d="M73,36.4c-2.8,0-5-0.7-6.6-2.1C64.8,32.9,64,31,64,28.7c0-2.4,0.8-4.4,2.5-5.7c1.7-1.4,4.2-2.1,7.5-2.1
		c1.4,0,2.6,0.1,3.8,0.4c1.2,0.2,2.2,0.5,3,0.9v-0.9c0-1.6-0.5-2.7-1.5-3.5c-1-0.7-2.2-1.1-3.6-1.1c-1.1,0-2.2,0.2-3.2,0.5
		s-1.8,0.8-2.3,1.5l-4.6-4.4c1-1.2,2.3-2.2,4.1-3c1.8-0.8,3.9-1.2,6.2-1.2c2.1,0,4,0.3,5.5,0.8c1.5,0.5,2.7,1.2,3.7,2.1
		s1.6,2,2.1,3.3c0.4,1.3,0.7,2.7,0.7,4.2v15.4h-7.1v-2.3h-0.1c-0.7,1-1.7,1.7-2.9,2.2C76.5,36.2,75,36.4,73,36.4z M75.9,31.1
		c1.5,0,2.7-0.4,3.6-1.2c0.9-0.8,1.4-1.9,1.4-3.3v-0.1c-0.7-0.2-1.5-0.3-2.2-0.4C77.8,26.1,77,26,76,26c-2.9,0-4.4,0.9-4.4,2.6
		c0,0.9,0.4,1.5,1.2,1.9C73.5,30.9,74.6,31.1,75.9,31.1z"/>
	<path fill="#FFFFFF" d="M92.8,10.6h7.1v3.5h0.1c0.7-1.1,1.7-2,3-2.9c1.3-0.8,3-1.2,4.9-1.2c1.3,0,2.6,0.2,3.8,0.6l-2.7,7.4
		c-0.9-0.5-1.8-0.7-2.8-0.7c-0.8,0-1.5,0.1-2.2,0.4s-1.3,0.7-1.9,1.2c-0.5,0.5-0.9,1.1-1.2,1.9c-0.3,0.7-0.5,1.6-0.5,2.5v12.6h-7.5
		V10.6z"/>
	<path fill="#FFFFFF" d="M117.7,8.5c-1.4,0-2.5-0.4-3.3-1.2c-0.8-0.8-1.2-1.8-1.2-3c0-1.2,0.4-2.2,1.2-3c0.8-0.8,1.9-1.3,3.3-1.3
		s2.5,0.4,3.3,1.3c0.8,0.9,1.2,1.9,1.2,3c0,1.2-0.4,2.2-1.2,3C120.2,8.1,119.1,8.5,117.7,8.5z M113.9,10.6h7.5v25.2h-7.5V10.6z"/>
	<path fill="#FFFFFF" d="M135.9,36.4c-1.2,0-2.4-0.1-3.5-0.3c-1.1-0.2-2.2-0.5-3.2-0.9c-1-0.4-1.8-0.8-2.6-1.3
		c-0.8-0.5-1.4-1-1.9-1.6l4.6-4.5c0.3,0.3,0.6,0.5,1.1,0.8c0.5,0.3,1,0.5,1.6,0.7c0.6,0.2,1.2,0.4,1.9,0.5c0.7,0.1,1.3,0.2,2,0.2
		c1.1,0,2-0.1,2.7-0.4c0.7-0.3,1-0.8,1-1.5c0-0.7-0.5-1.2-1.6-1.5c-1.1-0.3-2.5-0.6-4.4-0.9c-1-0.2-2-0.5-2.9-0.8
		c-0.9-0.4-1.8-0.9-2.5-1.5c-0.7-0.6-1.3-1.4-1.7-2.2c-0.4-0.9-0.6-1.9-0.6-3.1c0-1.3,0.3-2.4,0.8-3.4c0.5-1,1.3-1.9,2.3-2.5
		c1-0.7,2.1-1.2,3.5-1.6c1.3-0.4,2.8-0.5,4.4-0.5c2.5,0,4.6,0.4,6.5,1.1c1.8,0.8,3.2,1.7,4.2,2.7l-4.6,4.6c-0.6-0.6-1.4-1.2-2.4-1.6
		c-1.1-0.4-2.1-0.6-3.2-0.6c-1,0-1.8,0.1-2.5,0.4c-0.7,0.3-1,0.7-1,1.4c0,0.7,0.5,1.2,1.6,1.5c1.1,0.3,2.5,0.6,4.4,0.9
		c1,0.2,2,0.4,2.9,0.8c0.9,0.4,1.8,0.9,2.5,1.5c0.7,0.6,1.3,1.4,1.7,2.2c0.4,0.9,0.6,1.9,0.6,3.1c0,1.3-0.3,2.5-0.8,3.5
		c-0.6,1-1.4,1.9-2.4,2.6c-1,0.7-2.2,1.3-3.6,1.6C139,36.2,137.5,36.4,135.9,36.4z"/>
	<path fill="#FFFFFF" d="M84.4,78.8c-6.3,0-9.4-3.5-9.4-10.5v-9h-3V53h3v-6.8h7.5V53h8.6v6.3h-8.6v9c0,1.3,0.3,2.2,1,2.8
		c0.6,0.6,1.4,0.9,2.3,0.9c0.8,0,1.6-0.2,2.1-0.5c0.6-0.3,1-0.7,1.4-1.1l2.3,5.6c-0.5,0.7-1.5,1.3-2.8,1.9
		C87.6,78.5,86.1,78.8,84.4,78.8z"/>
	<path fill="#FFFFFF" d="M106.6,78.8c-2.3,0-4.3-0.4-5.9-1.2c-1.7-0.8-3.1-1.8-4.2-3.1c-1.1-1.3-1.9-2.7-2.4-4.3
		c-0.5-1.6-0.8-3.1-0.8-4.7c0-1.5,0.2-3.1,0.7-4.7c0.5-1.6,1.3-3,2.3-4.3c1-1.3,2.4-2.3,4-3.1c1.6-0.8,3.6-1.2,5.9-1.2
		c2.3,0,4.2,0.4,5.8,1.2c1.6,0.8,2.9,1.8,4,3.1c1,1.3,1.8,2.7,2.2,4.3c0.5,1.6,0.7,3.1,0.7,4.7c0,0.4,0,0.8-0.1,1.4
		c-0.1,0.5-0.1,0.9-0.2,1.2H101c0.2,0.7,0.5,1.3,0.9,1.8c0.4,0.5,0.9,0.9,1.4,1.2c0.5,0.3,1.1,0.6,1.7,0.7c0.6,0.2,1.2,0.2,1.9,0.2
		c1.1,0,2.2-0.2,3.2-0.5c1-0.4,1.8-0.8,2.3-1.5l4.6,4.4c-1,1.2-2.3,2.2-4.1,3C111,78.4,109,78.8,106.6,78.8z M106.2,58.7
		c-1.3,0-2.4,0.3-3.4,1c-1,0.6-1.6,1.7-1.9,3.3h10.7c-0.3-1.5-0.9-2.6-1.9-3.3C108.6,59,107.5,58.7,106.2,58.7z"/>
	<path fill="#FFFFFF" d="M119.6,53h8.1l4.6,15.7h0.1l4.6-15.7h7.9l-8.6,25.2h-8L119.6,53z"/>
	<path fill="#FFFFFF" d="M147.8,53h7.1v3.5h0.1c0.7-1.1,1.7-2,3-2.9c1.3-0.8,3-1.2,4.9-1.2c1.3,0,2.6,0.2,3.8,0.6l-2.7,7.4
		c-0.9-0.5-1.8-0.7-2.8-0.7c-0.8,0-1.5,0.1-2.2,0.4s-1.3,0.7-1.9,1.2c-0.5,0.5-0.9,1.1-1.2,1.9c-0.3,0.7-0.5,1.6-0.5,2.5v12.6h-7.5
		V53z"/>
	<path fill="#FFFFFF" d="M180,78.8c-2.3,0-4.3-0.4-5.9-1.2c-1.7-0.8-3.1-1.8-4.2-3.1c-1.1-1.3-1.9-2.7-2.4-4.3
		c-0.5-1.6-0.8-3.1-0.8-4.7c0-1.5,0.2-3.1,0.7-4.7c0.5-1.6,1.3-3,2.3-4.3c1-1.3,2.4-2.3,4-3.1c1.6-0.8,3.6-1.2,5.9-1.2
		c2.3,0,4.2,0.4,5.8,1.2c1.6,0.8,2.9,1.8,4,3.1c1,1.3,1.8,2.7,2.2,4.3c0.5,1.6,0.7,3.1,0.7,4.7c0,0.4,0,0.8-0.1,1.4
		c-0.1,0.5-0.1,0.9-0.2,1.2h-17.7c0.2,0.7,0.5,1.3,0.9,1.8c0.4,0.5,0.9,0.9,1.4,1.2c0.5,0.3,1.1,0.6,1.7,0.7
		c0.6,0.2,1.2,0.2,1.9,0.2c1.1,0,2.2-0.2,3.2-0.5c1-0.4,1.8-0.8,2.3-1.5l4.6,4.4c-1,1.2-2.3,2.2-4.1,3
		C184.4,78.4,182.3,78.8,180,78.8z M179.6,58.7c-1.3,0-2.4,0.3-3.4,1c-1,0.6-1.6,1.7-1.9,3.3h10.7c-0.3-1.5-0.9-2.6-1.9-3.3
		C182,59,180.9,58.7,179.6,58.7z"/>
	<path fill="#FFFFFF" d="M206.8,78.8c-2.2,0-4.1-0.4-5.7-1.2c-1.6-0.8-2.8-1.9-3.8-3.2c-1-1.3-1.7-2.8-2.1-4.3
		c-0.4-1.6-0.7-3.1-0.7-4.7c0-1.9,0.3-3.6,0.9-5.2s1.4-2.9,2.5-4.1c1.1-1.2,2.4-2.1,3.9-2.7c1.5-0.6,3.1-1,4.9-1
		c2,0,3.6,0.4,4.8,1.1c1.2,0.7,2.1,1.5,2.7,2.3h0.1l0-12.8h7.6v35.2h-7.1V75h-0.1c-0.7,1-1.7,1.9-3,2.7
		C210.4,78.4,208.7,78.8,206.8,78.8z M208.3,71.8c0.9,0,1.8-0.2,2.5-0.5c0.7-0.3,1.4-0.8,1.9-1.3s0.9-1.2,1.2-2
		c0.3-0.7,0.4-1.5,0.4-2.4c0-0.8-0.1-1.6-0.4-2.3c-0.3-0.7-0.7-1.4-1.2-2c-0.5-0.6-1.1-1-1.9-1.4c-0.8-0.3-1.6-0.5-2.6-0.5
		c-1,0-1.9,0.2-2.6,0.5s-1.4,0.8-1.9,1.4c-0.5,0.6-0.9,1.2-1.2,2c-0.3,0.7-0.4,1.5-0.4,2.3c0,0.9,0.1,1.6,0.4,2.4
		c0.3,0.7,0.7,1.4,1.2,2s1.2,1,1.9,1.3C206.6,71.6,207.4,71.8,208.3,71.8z"/>
	<path fill="#FFFFFF" d="M239.1,78.8c-2.3,0-4.3-0.4-5.9-1.2c-1.7-0.8-3.1-1.8-4.2-3.1c-1.1-1.3-1.9-2.7-2.4-4.3
		c-0.5-1.6-0.8-3.1-0.8-4.7c0-1.5,0.2-3.1,0.7-4.7c0.5-1.6,1.3-3,2.3-4.3c1-1.3,2.4-2.3,4-3.1c1.6-0.8,3.6-1.2,5.9-1.2
		c2.3,0,4.2,0.4,5.8,1.2c1.6,0.8,2.9,1.8,4,3.1c1,1.3,1.8,2.7,2.2,4.3c0.5,1.6,0.7,3.1,0.7,4.7c0,0.4,0,0.8-0.1,1.4
		c-0.1,0.5-0.1,0.9-0.2,1.2h-17.7c0.2,0.7,0.5,1.3,0.9,1.8c0.4,0.5,0.9,0.9,1.4,1.2c0.5,0.3,1.1,0.6,1.7,0.7
		c0.6,0.2,1.2,0.2,1.9,0.2c1.1,0,2.2-0.2,3.2-0.5c1-0.4,1.8-0.8,2.3-1.5l4.6,4.4c-1,1.2-2.3,2.2-4.1,3
		C243.5,78.4,241.4,78.8,239.1,78.8z M238.7,58.7c-1.3,0-2.4,0.3-3.4,1c-1,0.6-1.6,1.7-1.9,3.3H244c-0.3-1.5-0.9-2.6-1.9-3.3
		C241.1,59,240,58.7,238.7,58.7z"/>
	<path fill="#FFFFFF" d="M255.1,53h7.1v3h0.1c0.7-1.1,1.7-2,2.9-2.6c1.2-0.6,2.7-1,4.5-1c1.8,0,3.4,0.3,4.7,0.9
		c1.3,0.6,2.4,1.4,3.2,2.4c0.8,1,1.4,2.3,1.8,3.7c0.4,1.4,0.6,3,0.6,4.6v14.2h-7.5V65.1c0-0.7-0.1-1.5-0.2-2.2
		c-0.2-0.7-0.4-1.3-0.8-1.9c-0.4-0.5-0.9-1-1.5-1.3c-0.6-0.3-1.4-0.5-2.3-0.5c-0.9,0-1.6,0.2-2.3,0.5c-0.6,0.3-1.2,0.7-1.6,1.3
		c-0.4,0.5-0.8,1.1-1,1.9s-0.3,1.5-0.3,2.2v13.1h-7.5V53z"/>
	<path fill="#FFFFFF" d="M284.8,43h7.5v12.5h0.1c0.7-0.9,1.6-1.7,2.8-2.2c1.2-0.6,2.6-0.9,4.2-0.9c1.8,0,3.4,0.3,4.7,0.9
		c1.3,0.6,2.4,1.4,3.2,2.4c0.8,1,1.4,2.3,1.8,3.7c0.4,1.4,0.6,3,0.6,4.6v14.2h-7.5V65.1c0-0.7-0.1-1.5-0.2-2.2
		c-0.2-0.7-0.4-1.3-0.8-1.9c-0.4-0.5-0.9-1-1.5-1.3c-0.6-0.3-1.4-0.5-2.3-0.5c-0.9,0-1.6,0.2-2.3,0.5c-0.6,0.3-1.2,0.7-1.6,1.3
		c-0.4,0.5-0.8,1.1-1,1.9s-0.3,1.5-0.3,2.2v13.1h-7.5V43z"/>
	<path fill="#FFFFFF" d="M326.4,78.8c-2.3,0-4.3-0.4-5.9-1.2c-1.7-0.8-3.1-1.8-4.2-3.1c-1.1-1.3-1.9-2.7-2.4-4.3
		c-0.5-1.6-0.8-3.1-0.8-4.7c0-1.5,0.2-3.1,0.7-4.7c0.5-1.6,1.3-3,2.3-4.3c1-1.3,2.4-2.3,4-3.1c1.6-0.8,3.6-1.2,5.9-1.2
		c2.3,0,4.2,0.4,5.8,1.2c1.6,0.8,2.9,1.8,4,3.1c1,1.3,1.8,2.7,2.2,4.3c0.5,1.6,0.7,3.1,0.7,4.7c0,0.4,0,0.8-0.1,1.4
		c-0.1,0.5-0.1,0.9-0.2,1.2h-17.7c0.2,0.7,0.5,1.3,0.9,1.8c0.4,0.5,0.9,0.9,1.4,1.2c0.5,0.3,1.1,0.6,1.7,0.7
		c0.6,0.2,1.2,0.2,1.9,0.2c1.1,0,2.2-0.2,3.2-0.5c1-0.4,1.8-0.8,2.3-1.5l4.6,4.4c-1,1.2-2.3,2.2-4.1,3
		C330.9,78.4,328.8,78.8,326.4,78.8z M326,58.7c-1.3,0-2.4,0.3-3.4,1c-1,0.6-1.6,1.7-1.9,3.3h10.7c-0.3-1.5-0.9-2.6-1.9-3.3
		C328.5,59,327.3,58.7,326,58.7z"/>
	<path fill="#FFFFFF" d="M346.2,50.9c-1.4,0-2.5-0.4-3.3-1.2c-0.8-0.8-1.2-1.8-1.2-3c0-1.2,0.4-2.2,1.2-3c0.8-0.8,1.9-1.3,3.3-1.3
		s2.5,0.4,3.3,1.3c0.8,0.9,1.2,1.9,1.2,3c0,1.2-0.4,2.2-1.2,3C348.8,50.5,347.7,50.9,346.2,50.9z M342.5,53h7.5v25.2h-7.5V53z"/>
	<path fill="#FFFFFF" d="M366.1,78.8c-2.2,0-4.1-0.4-5.7-1.2c-1.6-0.8-2.8-1.9-3.8-3.2c-1-1.3-1.7-2.8-2.1-4.3
		c-0.4-1.6-0.7-3.1-0.7-4.7c0-1.9,0.3-3.6,0.9-5.2s1.4-2.9,2.5-4.1c1.1-1.2,2.4-2.1,3.9-2.7c1.5-0.6,3.1-1,4.9-1
		c2,0,3.6,0.4,4.8,1.1c1.2,0.7,2.1,1.5,2.7,2.3h0.1l0-12.8h7.6v35.2h-7.1V75H374c-0.7,1-1.7,1.9-3,2.7
		C369.7,78.4,368.1,78.8,366.1,78.8z M367.6,71.8c0.9,0,1.8-0.2,2.5-0.5c0.7-0.3,1.4-0.8,1.9-1.3s0.9-1.2,1.2-2
		c0.3-0.7,0.4-1.5,0.4-2.4c0-0.8-0.1-1.6-0.4-2.3c-0.3-0.7-0.7-1.4-1.2-2c-0.5-0.6-1.1-1-1.9-1.4c-0.8-0.3-1.6-0.5-2.6-0.5
		c-1,0-1.9,0.2-2.6,0.5s-1.4,0.8-1.9,1.4c-0.5,0.6-0.9,1.2-1.2,2c-0.3,0.7-0.4,1.5-0.4,2.3c0,0.9,0.1,1.6,0.4,2.4
		c0.3,0.7,0.7,1.4,1.2,2s1.2,1,1.9,1.3C365.9,71.6,366.7,71.8,367.6,71.8z"/>
</g>
<circle cx="48.7" cy="52.1" r="22.2"/>
<g>
	<path fill="#FFFFFF" d="M49.6,59.7c-1.1,0-2.1-0.1-2.9-0.4s-1.5-0.6-2.1-1c-0.6-0.4-1-0.9-1.3-1.5c-0.3-0.6-0.4-1.1-0.4-1.8
		c0-0.9,0.3-1.6,0.8-2.3s1.2-1.1,2.1-1.4c-0.8-0.4-1.3-0.8-1.7-1.4s-0.6-1.3-0.6-2c0-0.6,0.1-1.1,0.4-1.7c0.3-0.5,0.7-1,1.2-1.4
		s1.1-0.7,1.8-1c0.7-0.2,1.5-0.4,2.4-0.4c1.3,0,2.4,0.2,3.2,0.6c0.9,0.4,1.6,0.9,2.1,1.5l-2.3,2.3c-0.3-0.3-0.6-0.6-1.1-0.8
		c-0.4-0.2-0.9-0.3-1.4-0.3c-0.3,0-0.5,0-0.8,0.1c-0.3,0.1-0.5,0.1-0.8,0.3c-0.2,0.1-0.4,0.3-0.6,0.5c-0.1,0.2-0.2,0.5-0.2,0.7
		c0,0.5,0.2,0.8,0.5,1.1c0.4,0.3,0.8,0.4,1.5,0.4h1.2v3.1h-1.2c-0.8,0-1.4,0.1-1.9,0.4c-0.5,0.3-0.7,0.7-0.7,1.2
		c0,0.6,0.3,1,0.9,1.3c0.6,0.3,1.3,0.5,2.3,0.5c0.9,0,1.7-0.2,2.4-0.5c0.6-0.3,1-0.9,1-1.6v-1.3h-1.8v-3.1h7.1v3.1h-1.9v1.7
		c0,0.8-0.2,1.5-0.5,2.1c-0.3,0.6-0.8,1.1-1.4,1.5c-0.6,0.4-1.4,0.7-2.2,1C51.6,59.6,50.6,59.7,49.6,59.7z"/>
</g>
</svg>
