<?xml version="1.0" encoding="utf-8"?>
<!-- Generator: Adobe Illustrator 18.0.0, SVG Export Plug-In . SVG Version: 6.00 Build 0)  -->
<!DOCTYPE svg PUBLIC "-//W3C//DTD SVG 1.1//EN" "http://www.w3.org/Graphics/SVG/1.1/DTD/svg11.dtd">
<svg version="1.1" id="Layer_1" xmlns="http://www.w3.org/2000/svg" xmlns:xlink="http://www.w3.org/1999/xlink" x="0px" y="0px"
	 viewBox="0 0 161.4 21.1" enable-background="new 0 0 161.4 21.1" xml:space="preserve">
<g>
	<path fill="#FFFFFF" d="M0,5h3.8L6,12.4h0L8.2,5h3.7L7.8,16.8H4L0,5z"/>
	<path fill="#FFFFFF" d="M13.2,5h3.4v1.5h0C17,6,17.5,5.6,18.1,5.2c0.6-0.4,1.4-0.5,2.3-0.5c0.8,0,1.6,0.2,2.3,0.5
		c0.7,0.3,1.3,0.7,1.8,1.3s0.9,1.2,1.2,1.9c0.3,0.7,0.4,1.6,0.4,2.4c0,0.7-0.1,1.5-0.3,2.2c-0.2,0.7-0.5,1.4-1,2
		c-0.5,0.6-1,1.1-1.8,1.5c-0.7,0.4-1.6,0.6-2.7,0.6c-0.9,0-1.7-0.2-2.3-0.5c-0.6-0.3-1-0.7-1.3-1.1h0l0,5.3h-3.6V5z M19.6,13.8
		c0.4,0,0.8-0.1,1.2-0.2c0.4-0.2,0.6-0.4,0.9-0.6c0.2-0.3,0.4-0.6,0.6-0.9s0.2-0.7,0.2-1.1c0-0.4-0.1-0.7-0.2-1.1
		c-0.1-0.3-0.3-0.7-0.5-0.9c-0.2-0.3-0.5-0.5-0.9-0.6C20.5,8.1,20.1,8,19.6,8c-0.5,0-0.9,0.1-1.2,0.2c-0.4,0.2-0.6,0.4-0.9,0.6
		c-0.2,0.3-0.4,0.6-0.5,0.9c-0.1,0.3-0.2,0.7-0.2,1.1c0,0.4,0.1,0.8,0.2,1.1s0.3,0.7,0.6,0.9c0.2,0.3,0.5,0.5,0.9,0.6
		C18.8,13.7,19.2,13.8,19.6,13.8z"/>
	<path fill="#FFFFFF" d="M28,5h3.3v1.6h0c0.3-0.5,0.8-1,1.4-1.3c0.6-0.4,1.4-0.6,2.3-0.6c0.6,0,1.2,0.1,1.8,0.3l-1.3,3.5
		c-0.4-0.2-0.8-0.3-1.3-0.3c-0.4,0-0.7,0.1-1.1,0.2c-0.3,0.1-0.6,0.3-0.9,0.6s-0.4,0.5-0.6,0.9c-0.1,0.3-0.2,0.7-0.2,1.2v5.9H28V5z"
		/>
	<path fill="#FFFFFF" d="M43.2,17.1c-1.1,0-2-0.2-2.8-0.6c-0.8-0.4-1.5-0.9-2-1.5c-0.5-0.6-0.9-1.3-1.2-2s-0.4-1.5-0.4-2.2
		c0-0.7,0.1-1.5,0.4-2.2s0.6-1.4,1.2-2c0.5-0.6,1.2-1.1,2-1.5c0.8-0.4,1.7-0.6,2.8-0.6c1.1,0,2,0.2,2.8,0.6c0.8,0.4,1.5,0.9,2,1.5
		c0.5,0.6,0.9,1.3,1.2,2c0.3,0.7,0.4,1.5,0.4,2.2c0,0.7-0.1,1.5-0.4,2.2c-0.3,0.7-0.6,1.4-1.2,2c-0.5,0.6-1.2,1.1-2,1.5
		C45.2,16.9,44.3,17.1,43.2,17.1z M43.2,13.8c0.4,0,0.7-0.1,1.1-0.2c0.3-0.1,0.6-0.3,0.9-0.6c0.2-0.2,0.4-0.5,0.6-0.9
		s0.2-0.7,0.2-1.2c0-0.4-0.1-0.8-0.2-1.2c-0.1-0.4-0.3-0.7-0.6-0.9c-0.2-0.3-0.5-0.5-0.9-0.6C43.9,8.1,43.6,8,43.2,8
		c-0.4,0-0.7,0.1-1.1,0.2c-0.3,0.1-0.6,0.3-0.9,0.6c-0.2,0.3-0.4,0.6-0.6,0.9c-0.1,0.4-0.2,0.7-0.2,1.2c0,0.4,0.1,0.8,0.2,1.2
		s0.3,0.7,0.6,0.9s0.5,0.4,0.9,0.6S42.8,13.8,43.2,13.8z"/>
	<path fill="#E9510F" d="M56.2,17.1c-3,0-4.4-1.6-4.4-4.9V8h-1.4V5h1.4V1.8h3.6V5h4v3h-4v4.2c0,0.6,0.2,1.1,0.5,1.3
		c0.3,0.3,0.7,0.4,1.1,0.4c0.4,0,0.7-0.1,1-0.2c0.3-0.1,0.5-0.3,0.7-0.5l1.1,2.6c-0.3,0.3-0.7,0.6-1.3,0.9
		C57.7,17,57,17.1,56.2,17.1z"/>
	<path fill="#E9510F" d="M66.7,17.1c-1.1,0-2-0.2-2.8-0.6c-0.8-0.4-1.4-0.9-2-1.5c-0.5-0.6-0.9-1.3-1.2-2c-0.2-0.7-0.4-1.5-0.4-2.2
		c0-0.7,0.1-1.5,0.3-2.2s0.6-1.4,1.1-2c0.5-0.6,1.1-1.1,1.9-1.5c0.8-0.4,1.7-0.6,2.8-0.6c1.1,0,2,0.2,2.7,0.6
		c0.8,0.4,1.4,0.9,1.9,1.5c0.5,0.6,0.8,1.3,1.1,2c0.2,0.7,0.3,1.5,0.3,2.2c0,0.2,0,0.4,0,0.6c0,0.2-0.1,0.4-0.1,0.6H64
		c0.1,0.3,0.2,0.6,0.4,0.8c0.2,0.2,0.4,0.4,0.7,0.6c0.3,0.2,0.5,0.3,0.8,0.3c0.3,0.1,0.6,0.1,0.9,0.1c0.5,0,1-0.1,1.5-0.3
		c0.5-0.2,0.8-0.4,1.1-0.7l2.2,2.1c-0.4,0.6-1.1,1-1.9,1.4C68.8,16.9,67.8,17.1,66.7,17.1z M66.5,7.7c-0.6,0-1.1,0.2-1.6,0.5
		C64.4,8.4,64.1,9,64,9.7h5c-0.1-0.7-0.4-1.2-0.9-1.5C67.6,7.8,67.1,7.7,66.5,7.7z"/>
	<path fill="#E9510F" d="M79.5,21.1c-1.1,0-2.1-0.2-2.9-0.6c-0.8-0.4-1.5-0.8-1.9-1.4l2.4-2.1c0.2,0.3,0.6,0.5,1,0.7
		c0.4,0.2,0.9,0.3,1.4,0.3c0.4,0,0.7,0,1-0.1c0.3-0.1,0.6-0.2,0.9-0.4c0.3-0.2,0.5-0.4,0.6-0.7c0.2-0.3,0.2-0.7,0.2-1.2v-1.1h0
		c-0.2,0.3-0.6,0.6-1.2,0.9c-0.6,0.3-1.3,0.5-2.2,0.5c-1,0-1.8-0.2-2.5-0.5c-0.7-0.4-1.3-0.8-1.7-1.4c-0.4-0.6-0.7-1.2-0.9-1.8
		c-0.2-0.7-0.3-1.3-0.3-2c0-0.8,0.1-1.5,0.4-2.2c0.3-0.7,0.6-1.2,1.1-1.7c0.5-0.5,1.1-0.9,1.7-1.2c0.7-0.3,1.4-0.4,2.2-0.4
		c0.9,0,1.6,0.1,2.2,0.4c0.6,0.3,1,0.6,1.4,1.1h0V5h3.4v10.8c0,0.8-0.1,1.5-0.4,2.2c-0.3,0.7-0.7,1.2-1.2,1.7s-1.2,0.8-2,1.1
		S80.5,21.1,79.5,21.1z M79.7,12.8c0.4,0,0.8-0.1,1.1-0.2c0.3-0.1,0.6-0.3,0.8-0.6c0.2-0.2,0.4-0.5,0.5-0.8c0.1-0.3,0.2-0.6,0.2-1
		c0-0.3-0.1-0.6-0.2-0.9c-0.1-0.3-0.3-0.6-0.5-0.8c-0.2-0.2-0.5-0.4-0.8-0.6c-0.3-0.1-0.7-0.2-1.1-0.2c-0.4,0-0.8,0.1-1.1,0.2
		c-0.3,0.1-0.6,0.3-0.8,0.6s-0.4,0.5-0.5,0.8c-0.1,0.3-0.2,0.6-0.2,0.9c0,0.3,0.1,0.7,0.2,1c0.1,0.3,0.3,0.6,0.5,0.8
		c0.2,0.2,0.5,0.4,0.8,0.6C78.9,12.7,79.3,12.8,79.7,12.8z"/>
	<path fill="#E9510F" d="M93.9,17.1c-1.1,0-2-0.2-2.8-0.6c-0.8-0.4-1.4-0.9-2-1.5c-0.5-0.6-0.9-1.3-1.2-2c-0.2-0.7-0.4-1.5-0.4-2.2
		c0-0.7,0.1-1.5,0.3-2.2s0.6-1.4,1.1-2c0.5-0.6,1.1-1.1,1.9-1.5c0.8-0.4,1.7-0.6,2.8-0.6c1.1,0,2,0.2,2.7,0.6
		c0.8,0.4,1.4,0.9,1.9,1.5c0.5,0.6,0.8,1.3,1.1,2c0.2,0.7,0.3,1.5,0.3,2.2c0,0.2,0,0.4,0,0.6c0,0.2-0.1,0.4-0.1,0.6h-8.3
		c0.1,0.3,0.2,0.6,0.4,0.8c0.2,0.2,0.4,0.4,0.7,0.6c0.3,0.2,0.5,0.3,0.8,0.3C93.4,14,93.7,14,94,14c0.5,0,1-0.1,1.5-0.3
		c0.5-0.2,0.8-0.4,1.1-0.7l2.2,2.1c-0.4,0.6-1.1,1-1.9,1.4C96,16.9,95,17.1,93.9,17.1z M93.7,7.7c-0.6,0-1.1,0.2-1.6,0.5
		c-0.5,0.3-0.8,0.8-0.9,1.5h5c-0.1-0.7-0.4-1.2-0.9-1.5C94.9,7.8,94.3,7.7,93.7,7.7z"/>
	<path fill="#E9510F" d="M101.4,5h3.3v1.4h0c0.3-0.5,0.8-0.9,1.4-1.2c0.6-0.3,1.3-0.5,2.1-0.5c0.9,0,1.6,0.1,2.2,0.4
		s1.1,0.7,1.5,1.1c0.4,0.5,0.7,1.1,0.9,1.7s0.3,1.4,0.3,2.2v6.7h-3.6v-6.2c0-0.4,0-0.7-0.1-1c-0.1-0.3-0.2-0.6-0.4-0.9
		c-0.2-0.3-0.4-0.5-0.7-0.6c-0.3-0.2-0.6-0.2-1.1-0.2c-0.4,0-0.8,0.1-1.1,0.2c-0.3,0.2-0.5,0.4-0.8,0.6c-0.2,0.2-0.4,0.5-0.5,0.9
		c-0.1,0.3-0.1,0.7-0.1,1.1v6.2h-3.6V5z"/>
	<path fill="#FFFFFF" d="M115.4,0.3h3.6v16.6h-3.6V0.3z"/>
	<path fill="#FFFFFF" d="M123.3,4c-0.7,0-1.2-0.2-1.6-0.6c-0.4-0.4-0.6-0.9-0.6-1.4s0.2-1,0.6-1.4c0.4-0.4,0.9-0.6,1.6-0.6
		s1.2,0.2,1.6,0.6c0.4,0.4,0.6,0.9,0.6,1.4s-0.2,1-0.6,1.4C124.5,3.8,123.9,4,123.3,4z M121.5,5h3.6v11.9h-3.6V5z"/>
	<path fill="#FFFFFF" d="M133.2,17.1c-1.1,0-2-0.2-2.8-0.6c-0.8-0.4-1.4-0.9-2-1.5c-0.5-0.6-0.9-1.3-1.2-2s-0.4-1.5-0.4-2.2
		c0-0.7,0.1-1.5,0.4-2.2s0.6-1.4,1.2-2c0.5-0.6,1.2-1.1,2-1.5c0.8-0.4,1.7-0.6,2.8-0.6c1,0,1.9,0.2,2.6,0.6c0.8,0.4,1.4,0.8,1.8,1.4
		L135.2,9c-0.3-0.3-0.6-0.5-0.9-0.7c-0.4-0.2-0.7-0.2-1.1-0.2c-0.7,0-1.4,0.3-1.9,0.8c-0.5,0.5-0.8,1.2-0.8,2c0,0.8,0.3,1.5,0.8,2
		c0.5,0.5,1.1,0.8,1.9,0.8c0.4,0,0.8-0.1,1.1-0.2c0.4-0.2,0.7-0.4,0.9-0.6l2.4,2.4c-0.5,0.5-1.1,1-1.8,1.4
		C135.1,16.9,134.2,17.1,133.2,17.1z"/>
	<path fill="#FFFFFF" d="M139.2,0.3h3.6v5.9h0c0.3-0.4,0.8-0.8,1.3-1.1s1.2-0.4,2-0.4c0.9,0,1.6,0.1,2.2,0.4s1.1,0.7,1.5,1.1
		c0.4,0.5,0.7,1.1,0.9,1.7s0.3,1.4,0.3,2.2v6.7h-3.6v-6.2c0-0.4,0-0.7-0.1-1c-0.1-0.3-0.2-0.6-0.4-0.9c-0.2-0.3-0.4-0.5-0.7-0.6
		c-0.3-0.2-0.6-0.2-1.1-0.2c-0.4,0-0.8,0.1-1.1,0.2c-0.3,0.2-0.5,0.4-0.8,0.6c-0.2,0.2-0.4,0.5-0.5,0.9c-0.1,0.3-0.1,0.7-0.1,1.1
		v6.2h-3.6V0.3z"/>
	<path fill="#FFFFFF" d="M158,17.1c-3,0-4.4-1.6-4.4-4.9V8h-1.4V5h1.4V1.8h3.6V5h4v3h-4v4.2c0,0.6,0.2,1.1,0.5,1.3
		c0.3,0.3,0.7,0.4,1.1,0.4c0.4,0,0.7-0.1,1-0.2c0.3-0.1,0.5-0.3,0.7-0.5l1.1,2.6c-0.3,0.3-0.7,0.6-1.3,0.9
		C159.5,17,158.8,17.1,158,17.1z"/>
</g>
</svg>
